<svg xmlns="http://www.w3.org/2000/svg" version="1.1" xmlns:xlink="http://www.w3.org/1999/xlink" xmlns:svgjs="http://svgjs.dev/svgjs" viewBox="0 0 1422 800"><g stroke-width="3.5" stroke="#7b39ed" fill="none" stroke-linecap="round"><line x1="36" y1="0" x2="0" y2="36"></line><line x1="36" y1="0" x2="72" y2="36"></line><line x1="108" y1="0" x2="72" y2="36"></line><line x1="108" y1="0" x2="144" y2="36"></line><line x1="180" y1="0" x2="144" y2="36"></line><line x1="216" y1="0" x2="180" y2="36"></line><line x1="216" y1="0" x2="252" y2="36"></line><line x1="252" y1="0" x2="288" y2="36"></line><line x1="288" y1="0" x2="324" y2="36"></line><line x1="360" y1="0" x2="324" y2="36"></line><line x1="396" y1="0" x2="360" y2="36"></line><line x1="432" y1="0" x2="396" y2="36"></line><line x1="432" y1="0" x2="468" y2="36"></line><line x1="468" y1="0" x2="504" y2="36"></line><line x1="540" y1="0" x2="504" y2="36"></line><line x1="576" y1="0" x2="540" y2="36"></line><line x1="576" y1="0" x2="612" y2="36"></line><line x1="648" y1="0" x2="612" y2="36"></line><line x1="648" y1="0" x2="684" y2="36"></line><line x1="684" y1="0" x2="720" y2="36"></line><line x1="720" y1="0" x2="756" y2="36"></line><line x1="756" y1="0" x2="792" y2="36"></line><line x1="792" y1="0" x2="828" y2="36"></line><line x1="864" y1="0" x2="828" y2="36"></line><line x1="864" y1="0" x2="900" y2="36"></line><line x1="936" y1="0" x2="900" y2="36"></line><line x1="972" y1="0" x2="936" y2="36"></line><line x1="1008" y1="0" x2="972" y2="36"></line><line x1="1008" y1="0" x2="1044" y2="36"></line><line x1="1080" y1="0" x2="1044" y2="36"></line><line x1="1116" y1="0" x2="1080" y2="36"></line><line x1="1152" y1="0" x2="1116" y2="36"></line><line x1="1152" y1="0" x2="1188" y2="36"></line><line x1="1188" y1="0" x2="1224" y2="36"></line><line x1="1224" y1="0" x2="1260" y2="36"></line><line x1="1260" y1="0" x2="1296" y2="36"></line><line x1="1296" y1="0" x2="1332" y2="36"></line><line x1="1332" y1="0" x2="1368" y2="36"></line><line x1="1404" y1="0" x2="1368" y2="36"></line><line x1="1404" y1="0" x2="1440" y2="36"></line><line x1="0" y1="36" x2="36" y2="72"></line><line x1="72" y1="36" x2="36" y2="72"></line><line x1="72" y1="36" x2="108" y2="72"></line><line x1="108" y1="36" x2="144" y2="72"></line><line x1="144" y1="36" x2="180" y2="72"></line><line x1="216" y1="36" x2="180" y2="72"></line><line x1="252" y1="36" x2="216" y2="72"></line><line x1="288" y1="36" x2="252" y2="72"></line><line x1="324" y1="36" x2="288" y2="72"></line><line x1="324" y1="36" x2="360" y2="72"></line><line x1="396" y1="36" x2="360" y2="72"></line><line x1="396" y1="36" x2="432" y2="72"></line><line x1="432" y1="36" x2="468" y2="72"></line><line x1="504" y1="36" x2="468" y2="72"></line><line x1="540" y1="36" x2="504" y2="72"></line><line x1="540" y1="36" x2="576" y2="72"></line><line x1="612" y1="36" x2="576" y2="72"></line><line x1="648" y1="36" x2="612" y2="72"></line><line x1="648" y1="36" x2="684" y2="72"></line><line x1="720" y1="36" x2="684" y2="72"></line><line x1="720" y1="36" x2="756" y2="72"></line><line x1="792" y1="36" x2="756" y2="72"></line><line x1="792" y1="36" x2="828" y2="72"></line><line x1="828" y1="36" x2="864" y2="72"></line><line x1="864" y1="36" x2="900" y2="72"></line><line x1="900" y1="36" x2="936" y2="72"></line><line x1="936" y1="36" x2="972" y2="72"></line><line x1="1008" y1="36" x2="972" y2="72"></line><line x1="1008" y1="36" x2="1044" y2="72"></line><line x1="1080" y1="36" x2="1044" y2="72"></line><line x1="1116" y1="36" x2="1080" y2="72"></line><line x1="1152" y1="36" x2="1116" y2="72"></line><line x1="1188" y1="36" x2="1152" y2="72"></line><line x1="1188" y1="36" x2="1224" y2="72"></line><line x1="1260" y1="36" x2="1224" y2="72"></line><line x1="1260" y1="36" x2="1296" y2="72"></line><line x1="1296" y1="36" x2="1332" y2="72"></line><line x1="1332" y1="36" x2="1368" y2="72"></line><line x1="1368" y1="36" x2="1404" y2="72"></line><line x1="1440" y1="36" x2="1404" y2="72"></line><line x1="36" y1="72" x2="0" y2="108"></line><line x1="36" y1="72" x2="72" y2="108"></line><line x1="108" y1="72" x2="72" y2="108"></line><line x1="108" y1="72" x2="144" y2="108"></line><line x1="180" y1="72" x2="144" y2="108"></line><line x1="216" y1="72" x2="180" y2="108"></line><line x1="252" y1="72" x2="216" y2="108"></line><line x1="252" y1="72" x2="288" y2="108"></line><line x1="288" y1="72" x2="324" y2="108"></line><line x1="324" y1="72" x2="360" y2="108"></line><line x1="360" y1="72" x2="396" y2="108"></line><line x1="432" y1="72" x2="396" y2="108"></line><line x1="432" y1="72" x2="468" y2="108"></line><line x1="504" y1="72" x2="468" y2="108"></line><line x1="504" y1="72" x2="540" y2="108"></line><line x1="576" y1="72" x2="540" y2="108"></line><line x1="612" y1="72" x2="576" y2="108"></line><line x1="612" y1="72" x2="648" y2="108"></line><line x1="684" y1="72" x2="648" y2="108"></line><line x1="720" y1="72" x2="684" y2="108"></line><line x1="756" y1="72" x2="720" y2="108"></line><line x1="756" y1="72" x2="792" y2="108"></line><line x1="792" y1="72" x2="828" y2="108"></line><line x1="864" y1="72" x2="828" y2="108"></line><line x1="864" y1="72" x2="900" y2="108"></line><line x1="900" y1="72" x2="936" y2="108"></line><line x1="972" y1="72" x2="936" y2="108"></line><line x1="972" y1="72" x2="1008" y2="108"></line><line x1="1044" y1="72" x2="1008" y2="108"></line><line x1="1080" y1="72" x2="1044" y2="108"></line><line x1="1080" y1="72" x2="1116" y2="108"></line><line x1="1152" y1="72" x2="1116" y2="108"></line><line x1="1188" y1="72" x2="1152" y2="108"></line><line x1="1224" y1="72" x2="1188" y2="108"></line><line x1="1260" y1="72" x2="1224" y2="108"></line><line x1="1260" y1="72" x2="1296" y2="108"></line><line x1="1332" y1="72" x2="1296" y2="108"></line><line x1="1368" y1="72" x2="1332" y2="108"></line><line x1="1404" y1="72" x2="1368" y2="108"></line><line x1="1404" y1="72" x2="1440" y2="108"></line><line x1="0" y1="108" x2="36" y2="144"></line><line x1="72" y1="108" x2="36" y2="144"></line><line x1="108" y1="108" x2="72" y2="144"></line><line x1="108" y1="108" x2="144" y2="144"></line><line x1="180" y1="108" x2="144" y2="144"></line><line x1="216" y1="108" x2="180" y2="144"></line><line x1="216" y1="108" x2="252" y2="144"></line><line x1="288" y1="108" x2="252" y2="144"></line><line x1="288" y1="108" x2="324" y2="144"></line><line x1="324" y1="108" x2="360" y2="144"></line><line x1="360" y1="108" x2="396" y2="144"></line><line x1="432" y1="108" x2="396" y2="144"></line><line x1="468" y1="108" x2="432" y2="144"></line><line x1="504" y1="108" x2="468" y2="144"></line><line x1="540" y1="108" x2="504" y2="144"></line><line x1="576" y1="108" x2="540" y2="144"></line><line x1="576" y1="108" x2="612" y2="144"></line><line x1="612" y1="108" x2="648" y2="144"></line><line x1="648" y1="108" x2="684" y2="144"></line><line x1="720" y1="108" x2="684" y2="144"></line><line x1="720" y1="108" x2="756" y2="144"></line><line x1="792" y1="108" x2="756" y2="144"></line><line x1="792" y1="108" x2="828" y2="144"></line><line x1="828" y1="108" x2="864" y2="144"></line><line x1="900" y1="108" x2="864" y2="144"></line><line x1="900" y1="108" x2="936" y2="144"></line><line x1="972" y1="108" x2="936" y2="144"></line><line x1="1008" y1="108" x2="972" y2="144"></line><line x1="1008" y1="108" x2="1044" y2="144"></line><line x1="1080" y1="108" x2="1044" y2="144"></line><line x1="1080" y1="108" x2="1116" y2="144"></line><line x1="1152" y1="108" x2="1116" y2="144"></line><line x1="1188" y1="108" x2="1152" y2="144"></line><line x1="1224" y1="108" x2="1188" y2="144"></line><line x1="1224" y1="108" x2="1260" y2="144"></line><line x1="1296" y1="108" x2="1260" y2="144"></line><line x1="1332" y1="108" x2="1296" y2="144"></line><line x1="1332" y1="108" x2="1368" y2="144"></line><line x1="1404" y1="108" x2="1368" y2="144"></line><line x1="1404" y1="108" x2="1440" y2="144"></line><line x1="36" y1="144" x2="0" y2="180"></line><line x1="36" y1="144" x2="72" y2="180"></line><line x1="108" y1="144" x2="72" y2="180"></line><line x1="108" y1="144" x2="144" y2="180"></line><line x1="180" y1="144" x2="144" y2="180"></line><line x1="180" y1="144" x2="216" y2="180"></line><line x1="216" y1="144" x2="252" y2="180"></line><line x1="288" y1="144" x2="252" y2="180"></line><line x1="324" y1="144" x2="288" y2="180"></line><line x1="360" y1="144" x2="324" y2="180"></line><line x1="360" y1="144" x2="396" y2="180"></line><line x1="432" y1="144" x2="396" y2="180"></line><line x1="432" y1="144" x2="468" y2="180"></line><line x1="468" y1="144" x2="504" y2="180"></line><line x1="540" y1="144" x2="504" y2="180"></line><line x1="576" y1="144" x2="540" y2="180"></line><line x1="612" y1="144" x2="576" y2="180"></line><line x1="648" y1="144" x2="612" y2="180"></line><line x1="684" y1="144" x2="648" y2="180"></line><line x1="720" y1="144" x2="684" y2="180"></line><line x1="720" y1="144" x2="756" y2="180"></line><line x1="792" y1="144" x2="756" y2="180"></line><line x1="828" y1="144" x2="792" y2="180"></line><line x1="828" y1="144" x2="864" y2="180"></line><line x1="864" y1="144" x2="900" y2="180"></line><line x1="936" y1="144" x2="900" y2="180"></line><line x1="972" y1="144" x2="936" y2="180"></line><line x1="972" y1="144" x2="1008" y2="180"></line><line x1="1044" y1="144" x2="1008" y2="180"></line><line x1="1080" y1="144" x2="1044" y2="180"></line><line x1="1116" y1="144" x2="1080" y2="180"></line><line x1="1152" y1="144" x2="1116" y2="180"></line><line x1="1152" y1="144" x2="1188" y2="180"></line><line x1="1224" y1="144" x2="1188" y2="180"></line><line x1="1224" y1="144" x2="1260" y2="180"></line><line x1="1260" y1="144" x2="1296" y2="180"></line><line x1="1296" y1="144" x2="1332" y2="180"></line><line x1="1368" y1="144" x2="1332" y2="180"></line><line x1="1368" y1="144" x2="1404" y2="180"></line><line x1="1440" y1="144" x2="1404" y2="180"></line><line x1="0" y1="180" x2="36" y2="216"></line><line x1="72" y1="180" x2="36" y2="216"></line><line x1="108" y1="180" x2="72" y2="216"></line><line x1="108" y1="180" x2="144" y2="216"></line><line x1="144" y1="180" x2="180" y2="216"></line><line x1="216" y1="180" x2="180" y2="216"></line><line x1="252" y1="180" x2="216" y2="216"></line><line x1="252" y1="180" x2="288" y2="216"></line><line x1="324" y1="180" x2="288" y2="216"></line><line x1="324" y1="180" x2="360" y2="216"></line><line x1="360" y1="180" x2="396" y2="216"></line><line x1="432" y1="180" x2="396" y2="216"></line><line x1="432" y1="180" x2="468" y2="216"></line><line x1="504" y1="180" x2="468" y2="216"></line><line x1="504" y1="180" x2="540" y2="216"></line><line x1="576" y1="180" x2="540" y2="216"></line><line x1="612" y1="180" x2="576" y2="216"></line><line x1="612" y1="180" x2="648" y2="216"></line><line x1="648" y1="180" x2="684" y2="216"></line><line x1="720" y1="180" x2="684" y2="216"></line><line x1="756" y1="180" x2="720" y2="216"></line><line x1="756" y1="180" x2="792" y2="216"></line><line x1="792" y1="180" x2="828" y2="216"></line><line x1="828" y1="180" x2="864" y2="216"></line><line x1="900" y1="180" x2="864" y2="216"></line><line x1="900" y1="180" x2="936" y2="216"></line><line x1="972" y1="180" x2="936" y2="216"></line><line x1="1008" y1="180" x2="972" y2="216"></line><line x1="1044" y1="180" x2="1008" y2="216"></line><line x1="1080" y1="180" x2="1044" y2="216"></line><line x1="1080" y1="180" x2="1116" y2="216"></line><line x1="1116" y1="180" x2="1152" y2="216"></line><line x1="1188" y1="180" x2="1152" y2="216"></line><line x1="1224" y1="180" x2="1188" y2="216"></line><line x1="1224" y1="180" x2="1260" y2="216"></line><line x1="1296" y1="180" x2="1260" y2="216"></line><line x1="1332" y1="180" x2="1296" y2="216"></line><line x1="1332" y1="180" x2="1368" y2="216"></line><line x1="1368" y1="180" x2="1404" y2="216"></line><line x1="1404" y1="180" x2="1440" y2="216"></line><line x1="36" y1="216" x2="0" y2="252"></line><line x1="72" y1="216" x2="36" y2="252"></line><line x1="108" y1="216" x2="72" y2="252"></line><line x1="144" y1="216" x2="108" y2="252"></line><line x1="180" y1="216" x2="144" y2="252"></line><line x1="180" y1="216" x2="216" y2="252"></line><line x1="252" y1="216" x2="216" y2="252"></line><line x1="288" y1="216" x2="252" y2="252"></line><line x1="288" y1="216" x2="324" y2="252"></line><line x1="324" y1="216" x2="360" y2="252"></line><line x1="396" y1="216" x2="360" y2="252"></line><line x1="432" y1="216" x2="396" y2="252"></line><line x1="468" y1="216" x2="432" y2="252"></line><line x1="468" y1="216" x2="504" y2="252"></line><line x1="504" y1="216" x2="540" y2="252"></line><line x1="576" y1="216" x2="540" y2="252"></line><line x1="576" y1="216" x2="612" y2="252"></line><line x1="612" y1="216" x2="648" y2="252"></line><line x1="684" y1="216" x2="648" y2="252"></line><line x1="720" y1="216" x2="684" y2="252"></line><line x1="756" y1="216" x2="720" y2="252"></line><line x1="792" y1="216" x2="756" y2="252"></line><line x1="792" y1="216" x2="828" y2="252"></line><line x1="864" y1="216" x2="828" y2="252"></line><line x1="864" y1="216" x2="900" y2="252"></line><line x1="900" y1="216" x2="936" y2="252"></line><line x1="972" y1="216" x2="936" y2="252"></line><line x1="1008" y1="216" x2="972" y2="252"></line><line x1="1008" y1="216" x2="1044" y2="252"></line><line x1="1080" y1="216" x2="1044" y2="252"></line><line x1="1080" y1="216" x2="1116" y2="252"></line><line x1="1116" y1="216" x2="1152" y2="252"></line><line x1="1152" y1="216" x2="1188" y2="252"></line><line x1="1224" y1="216" x2="1188" y2="252"></line><line x1="1224" y1="216" x2="1260" y2="252"></line><line x1="1296" y1="216" x2="1260" y2="252"></line><line x1="1332" y1="216" x2="1296" y2="252"></line><line x1="1332" y1="216" x2="1368" y2="252"></line><line x1="1368" y1="216" x2="1404" y2="252"></line><line x1="1440" y1="216" x2="1404" y2="252"></line><line x1="0" y1="252" x2="36" y2="288"></line><line x1="72" y1="252" x2="36" y2="288"></line><line x1="72" y1="252" x2="108" y2="288"></line><line x1="144" y1="252" x2="108" y2="288"></line><line x1="180" y1="252" x2="144" y2="288"></line><line x1="180" y1="252" x2="216" y2="288"></line><line x1="216" y1="252" x2="252" y2="288"></line><line x1="288" y1="252" x2="252" y2="288"></line><line x1="324" y1="252" x2="288" y2="288"></line><line x1="324" y1="252" x2="360" y2="288"></line><line x1="396" y1="252" x2="360" y2="288"></line><line x1="396" y1="252" x2="432" y2="288"></line><line x1="468" y1="252" x2="432" y2="288"></line><line x1="468" y1="252" x2="504" y2="288"></line><line x1="540" y1="252" x2="504" y2="288"></line><line x1="540" y1="252" x2="576" y2="288"></line><line x1="612" y1="252" x2="576" y2="288"></line><line x1="648" y1="252" x2="612" y2="288"></line><line x1="648" y1="252" x2="684" y2="288"></line><line x1="720" y1="252" x2="684" y2="288"></line><line x1="720" y1="252" x2="756" y2="288"></line><line x1="792" y1="252" x2="756" y2="288"></line><line x1="828" y1="252" x2="792" y2="288"></line><line x1="828" y1="252" x2="864" y2="288"></line><line x1="864" y1="252" x2="900" y2="288"></line><line x1="900" y1="252" x2="936" y2="288"></line><line x1="936" y1="252" x2="972" y2="288"></line><line x1="1008" y1="252" x2="972" y2="288"></line><line x1="1044" y1="252" x2="1008" y2="288"></line><line x1="1080" y1="252" x2="1044" y2="288"></line><line x1="1080" y1="252" x2="1116" y2="288"></line><line x1="1152" y1="252" x2="1116" y2="288"></line><line x1="1152" y1="252" x2="1188" y2="288"></line><line x1="1188" y1="252" x2="1224" y2="288"></line><line x1="1260" y1="252" x2="1224" y2="288"></line><line x1="1260" y1="252" x2="1296" y2="288"></line><line x1="1332" y1="252" x2="1296" y2="288"></line><line x1="1332" y1="252" x2="1368" y2="288"></line><line x1="1404" y1="252" x2="1368" y2="288"></line><line x1="1404" y1="252" x2="1440" y2="288"></line><line x1="36" y1="288" x2="0" y2="324"></line><line x1="72" y1="288" x2="36" y2="324"></line><line x1="108" y1="288" x2="72" y2="324"></line><line x1="144" y1="288" x2="108" y2="324"></line><line x1="144" y1="288" x2="180" y2="324"></line><line x1="216" y1="288" x2="180" y2="324"></line><line x1="216" y1="288" x2="252" y2="324"></line><line x1="288" y1="288" x2="252" y2="324"></line><line x1="288" y1="288" x2="324" y2="324"></line><line x1="360" y1="288" x2="324" y2="324"></line><line x1="360" y1="288" x2="396" y2="324"></line><line x1="432" y1="288" x2="396" y2="324"></line><line x1="432" y1="288" x2="468" y2="324"></line><line x1="504" y1="288" x2="468" y2="324"></line><line x1="504" y1="288" x2="540" y2="324"></line><line x1="576" y1="288" x2="540" y2="324"></line><line x1="576" y1="288" x2="612" y2="324"></line><line x1="648" y1="288" x2="612" y2="324"></line><line x1="684" y1="288" x2="648" y2="324"></line><line x1="720" y1="288" x2="684" y2="324"></line><line x1="756" y1="288" x2="720" y2="324"></line><line x1="756" y1="288" x2="792" y2="324"></line><line x1="828" y1="288" x2="792" y2="324"></line><line x1="828" y1="288" x2="864" y2="324"></line><line x1="900" y1="288" x2="864" y2="324"></line><line x1="900" y1="288" x2="936" y2="324"></line><line x1="936" y1="288" x2="972" y2="324"></line><line x1="1008" y1="288" x2="972" y2="324"></line><line x1="1008" y1="288" x2="1044" y2="324"></line><line x1="1080" y1="288" x2="1044" y2="324"></line><line x1="1080" y1="288" x2="1116" y2="324"></line><line x1="1116" y1="288" x2="1152" y2="324"></line><line x1="1188" y1="288" x2="1152" y2="324"></line><line x1="1188" y1="288" x2="1224" y2="324"></line><line x1="1260" y1="288" x2="1224" y2="324"></line><line x1="1260" y1="288" x2="1296" y2="324"></line><line x1="1332" y1="288" x2="1296" y2="324"></line><line x1="1332" y1="288" x2="1368" y2="324"></line><line x1="1368" y1="288" x2="1404" y2="324"></line><line x1="1404" y1="288" x2="1440" y2="324"></line><line x1="36" y1="324" x2="0" y2="360"></line><line x1="72" y1="324" x2="36" y2="360"></line><line x1="72" y1="324" x2="108" y2="360"></line><line x1="108" y1="324" x2="144" y2="360"></line><line x1="180" y1="324" x2="144" y2="360"></line><line x1="216" y1="324" x2="180" y2="360"></line><line x1="216" y1="324" x2="252" y2="360"></line><line x1="288" y1="324" x2="252" y2="360"></line><line x1="288" y1="324" x2="324" y2="360"></line><line x1="324" y1="324" x2="360" y2="360"></line><line x1="360" y1="324" x2="396" y2="360"></line><line x1="432" y1="324" x2="396" y2="360"></line><line x1="432" y1="324" x2="468" y2="360"></line><line x1="468" y1="324" x2="504" y2="360"></line><line x1="540" y1="324" x2="504" y2="360"></line><line x1="540" y1="324" x2="576" y2="360"></line><line x1="612" y1="324" x2="576" y2="360"></line><line x1="612" y1="324" x2="648" y2="360"></line><line x1="648" y1="324" x2="684" y2="360"></line><line x1="720" y1="324" x2="684" y2="360"></line><line x1="756" y1="324" x2="720" y2="360"></line><line x1="792" y1="324" x2="756" y2="360"></line><line x1="828" y1="324" x2="792" y2="360"></line><line x1="828" y1="324" x2="864" y2="360"></line><line x1="864" y1="324" x2="900" y2="360"></line><line x1="936" y1="324" x2="900" y2="360"></line><line x1="936" y1="324" x2="972" y2="360"></line><line x1="1008" y1="324" x2="972" y2="360"></line><line x1="1008" y1="324" x2="1044" y2="360"></line><line x1="1080" y1="324" x2="1044" y2="360"></line><line x1="1116" y1="324" x2="1080" y2="360"></line><line x1="1116" y1="324" x2="1152" y2="360"></line><line x1="1188" y1="324" x2="1152" y2="360"></line><line x1="1224" y1="324" x2="1188" y2="360"></line><line x1="1260" y1="324" x2="1224" y2="360"></line><line x1="1260" y1="324" x2="1296" y2="360"></line><line x1="1296" y1="324" x2="1332" y2="360"></line><line x1="1332" y1="324" x2="1368" y2="360"></line><line x1="1404" y1="324" x2="1368" y2="360"></line><line x1="1440" y1="324" x2="1404" y2="360"></line><line x1="36" y1="360" x2="0" y2="396"></line><line x1="36" y1="360" x2="72" y2="396"></line><line x1="108" y1="360" x2="72" y2="396"></line><line x1="144" y1="360" x2="108" y2="396"></line><line x1="180" y1="360" x2="144" y2="396"></line><line x1="216" y1="360" x2="180" y2="396"></line><line x1="252" y1="360" x2="216" y2="396"></line><line x1="288" y1="360" x2="252" y2="396"></line><line x1="288" y1="360" x2="324" y2="396"></line><line x1="360" y1="360" x2="324" y2="396"></line><line x1="396" y1="360" x2="360" y2="396"></line><line x1="432" y1="360" x2="396" y2="396"></line><line x1="468" y1="360" x2="432" y2="396"></line><line x1="468" y1="360" x2="504" y2="396"></line><line x1="504" y1="360" x2="540" y2="396"></line><line x1="576" y1="360" x2="540" y2="396"></line><line x1="612" y1="360" x2="576" y2="396"></line><line x1="612" y1="360" x2="648" y2="396"></line><line x1="648" y1="360" x2="684" y2="396"></line><line x1="684" y1="360" x2="720" y2="396"></line><line x1="756" y1="360" x2="720" y2="396"></line><line x1="792" y1="360" x2="756" y2="396"></line><line x1="792" y1="360" x2="828" y2="396"></line><line x1="828" y1="360" x2="864" y2="396"></line><line x1="864" y1="360" x2="900" y2="396"></line><line x1="900" y1="360" x2="936" y2="396"></line><line x1="936" y1="360" x2="972" y2="396"></line><line x1="1008" y1="360" x2="972" y2="396"></line><line x1="1044" y1="360" x2="1008" y2="396"></line><line x1="1044" y1="360" x2="1080" y2="396"></line><line x1="1080" y1="360" x2="1116" y2="396"></line><line x1="1116" y1="360" x2="1152" y2="396"></line><line x1="1152" y1="360" x2="1188" y2="396"></line><line x1="1188" y1="360" x2="1224" y2="396"></line><line x1="1260" y1="360" x2="1224" y2="396"></line><line x1="1296" y1="360" x2="1260" y2="396"></line><line x1="1332" y1="360" x2="1296" y2="396"></line><line x1="1332" y1="360" x2="1368" y2="396"></line><line x1="1404" y1="360" x2="1368" y2="396"></line><line x1="1440" y1="360" x2="1404" y2="396"></line><line x1="36" y1="396" x2="0" y2="432"></line><line x1="72" y1="396" x2="36" y2="432"></line><line x1="108" y1="396" x2="72" y2="432"></line><line x1="108" y1="396" x2="144" y2="432"></line><line x1="144" y1="396" x2="180" y2="432"></line><line x1="180" y1="396" x2="216" y2="432"></line><line x1="216" y1="396" x2="252" y2="432"></line><line x1="288" y1="396" x2="252" y2="432"></line><line x1="288" y1="396" x2="324" y2="432"></line><line x1="360" y1="396" x2="324" y2="432"></line><line x1="396" y1="396" x2="360" y2="432"></line><line x1="396" y1="396" x2="432" y2="432"></line><line x1="468" y1="396" x2="432" y2="432"></line><line x1="468" y1="396" x2="504" y2="432"></line><line x1="540" y1="396" x2="504" y2="432"></line><line x1="540" y1="396" x2="576" y2="432"></line><line x1="576" y1="396" x2="612" y2="432"></line><line x1="612" y1="396" x2="648" y2="432"></line><line x1="684" y1="396" x2="648" y2="432"></line><line x1="684" y1="396" x2="720" y2="432"></line><line x1="756" y1="396" x2="720" y2="432"></line><line x1="792" y1="396" x2="756" y2="432"></line><line x1="792" y1="396" x2="828" y2="432"></line><line x1="828" y1="396" x2="864" y2="432"></line><line x1="900" y1="396" x2="864" y2="432"></line><line x1="900" y1="396" x2="936" y2="432"></line><line x1="936" y1="396" x2="972" y2="432"></line><line x1="1008" y1="396" x2="972" y2="432"></line><line x1="1008" y1="396" x2="1044" y2="432"></line><line x1="1080" y1="396" x2="1044" y2="432"></line><line x1="1080" y1="396" x2="1116" y2="432"></line><line x1="1116" y1="396" x2="1152" y2="432"></line><line x1="1188" y1="396" x2="1152" y2="432"></line><line x1="1188" y1="396" x2="1224" y2="432"></line><line x1="1260" y1="396" x2="1224" y2="432"></line><line x1="1296" y1="396" x2="1260" y2="432"></line><line x1="1332" y1="396" x2="1296" y2="432"></line><line x1="1332" y1="396" x2="1368" y2="432"></line><line x1="1368" y1="396" x2="1404" y2="432"></line><line x1="1440" y1="396" x2="1404" y2="432"></line><line x1="0" y1="432" x2="36" y2="468"></line><line x1="72" y1="432" x2="36" y2="468"></line><line x1="72" y1="432" x2="108" y2="468"></line><line x1="108" y1="432" x2="144" y2="468"></line><line x1="144" y1="432" x2="180" y2="468"></line><line x1="216" y1="432" x2="180" y2="468"></line><line x1="252" y1="432" x2="216" y2="468"></line><line x1="252" y1="432" x2="288" y2="468"></line><line x1="324" y1="432" x2="288" y2="468"></line><line x1="360" y1="432" x2="324" y2="468"></line><line x1="396" y1="432" x2="360" y2="468"></line><line x1="396" y1="432" x2="432" y2="468"></line><line x1="432" y1="432" x2="468" y2="468"></line><line x1="468" y1="432" x2="504" y2="468"></line><line x1="540" y1="432" x2="504" y2="468"></line><line x1="576" y1="432" x2="540" y2="468"></line><line x1="612" y1="432" x2="576" y2="468"></line><line x1="648" y1="432" x2="612" y2="468"></line><line x1="684" y1="432" x2="648" y2="468"></line><line x1="684" y1="432" x2="720" y2="468"></line><line x1="720" y1="432" x2="756" y2="468"></line><line x1="756" y1="432" x2="792" y2="468"></line><line x1="792" y1="432" x2="828" y2="468"></line><line x1="828" y1="432" x2="864" y2="468"></line><line x1="900" y1="432" x2="864" y2="468"></line><line x1="936" y1="432" x2="900" y2="468"></line><line x1="936" y1="432" x2="972" y2="468"></line><line x1="1008" y1="432" x2="972" y2="468"></line><line x1="1008" y1="432" x2="1044" y2="468"></line><line x1="1044" y1="432" x2="1080" y2="468"></line><line x1="1116" y1="432" x2="1080" y2="468"></line><line x1="1116" y1="432" x2="1152" y2="468"></line><line x1="1152" y1="432" x2="1188" y2="468"></line><line x1="1188" y1="432" x2="1224" y2="468"></line><line x1="1224" y1="432" x2="1260" y2="468"></line><line x1="1296" y1="432" x2="1260" y2="468"></line><line x1="1332" y1="432" x2="1296" y2="468"></line><line x1="1332" y1="432" x2="1368" y2="468"></line><line x1="1404" y1="432" x2="1368" y2="468"></line><line x1="1404" y1="432" x2="1440" y2="468"></line><line x1="0" y1="468" x2="36" y2="504"></line><line x1="72" y1="468" x2="36" y2="504"></line><line x1="72" y1="468" x2="108" y2="504"></line><line x1="108" y1="468" x2="144" y2="504"></line><line x1="180" y1="468" x2="144" y2="504"></line><line x1="216" y1="468" x2="180" y2="504"></line><line x1="216" y1="468" x2="252" y2="504"></line><line x1="288" y1="468" x2="252" y2="504"></line><line x1="288" y1="468" x2="324" y2="504"></line><line x1="360" y1="468" x2="324" y2="504"></line><line x1="396" y1="468" x2="360" y2="504"></line><line x1="432" y1="468" x2="396" y2="504"></line><line x1="432" y1="468" x2="468" y2="504"></line><line x1="468" y1="468" x2="504" y2="504"></line><line x1="540" y1="468" x2="504" y2="504"></line><line x1="540" y1="468" x2="576" y2="504"></line><line x1="576" y1="468" x2="612" y2="504"></line><line x1="648" y1="468" x2="612" y2="504"></line><line x1="648" y1="468" x2="684" y2="504"></line><line x1="684" y1="468" x2="720" y2="504"></line><line x1="756" y1="468" x2="720" y2="504"></line><line x1="756" y1="468" x2="792" y2="504"></line><line x1="792" y1="468" x2="828" y2="504"></line><line x1="828" y1="468" x2="864" y2="504"></line><line x1="864" y1="468" x2="900" y2="504"></line><line x1="936" y1="468" x2="900" y2="504"></line><line x1="936" y1="468" x2="972" y2="504"></line><line x1="972" y1="468" x2="1008" y2="504"></line><line x1="1008" y1="468" x2="1044" y2="504"></line><line x1="1044" y1="468" x2="1080" y2="504"></line><line x1="1080" y1="468" x2="1116" y2="504"></line><line x1="1116" y1="468" x2="1152" y2="504"></line><line x1="1188" y1="468" x2="1152" y2="504"></line><line x1="1188" y1="468" x2="1224" y2="504"></line><line x1="1224" y1="468" x2="1260" y2="504"></line><line x1="1260" y1="468" x2="1296" y2="504"></line><line x1="1332" y1="468" x2="1296" y2="504"></line><line x1="1368" y1="468" x2="1332" y2="504"></line><line x1="1404" y1="468" x2="1368" y2="504"></line><line x1="1404" y1="468" x2="1440" y2="504"></line><line x1="36" y1="504" x2="0" y2="540"></line><line x1="72" y1="504" x2="36" y2="540"></line><line x1="108" y1="504" x2="72" y2="540"></line><line x1="108" y1="504" x2="144" y2="540"></line><line x1="144" y1="504" x2="180" y2="540"></line><line x1="216" y1="504" x2="180" y2="540"></line><line x1="252" y1="504" x2="216" y2="540"></line><line x1="252" y1="504" x2="288" y2="540"></line><line x1="288" y1="504" x2="324" y2="540"></line><line x1="360" y1="504" x2="324" y2="540"></line><line x1="360" y1="504" x2="396" y2="540"></line><line x1="432" y1="504" x2="396" y2="540"></line><line x1="468" y1="504" x2="432" y2="540"></line><line x1="468" y1="504" x2="504" y2="540"></line><line x1="540" y1="504" x2="504" y2="540"></line><line x1="540" y1="504" x2="576" y2="540"></line><line x1="576" y1="504" x2="612" y2="540"></line><line x1="612" y1="504" x2="648" y2="540"></line><line x1="648" y1="504" x2="684" y2="540"></line><line x1="720" y1="504" x2="684" y2="540"></line><line x1="756" y1="504" x2="720" y2="540"></line><line x1="792" y1="504" x2="756" y2="540"></line><line x1="792" y1="504" x2="828" y2="540"></line><line x1="828" y1="504" x2="864" y2="540"></line><line x1="864" y1="504" x2="900" y2="540"></line><line x1="900" y1="504" x2="936" y2="540"></line><line x1="936" y1="504" x2="972" y2="540"></line><line x1="972" y1="504" x2="1008" y2="540"></line><line x1="1008" y1="504" x2="1044" y2="540"></line><line x1="1044" y1="504" x2="1080" y2="540"></line><line x1="1080" y1="504" x2="1116" y2="540"></line><line x1="1116" y1="504" x2="1152" y2="540"></line><line x1="1188" y1="504" x2="1152" y2="540"></line><line x1="1188" y1="504" x2="1224" y2="540"></line><line x1="1224" y1="504" x2="1260" y2="540"></line><line x1="1296" y1="504" x2="1260" y2="540"></line><line x1="1296" y1="504" x2="1332" y2="540"></line><line x1="1368" y1="504" x2="1332" y2="540"></line><line x1="1404" y1="504" x2="1368" y2="540"></line><line x1="1440" y1="504" x2="1404" y2="540"></line><line x1="0" y1="540" x2="36" y2="576"></line><line x1="72" y1="540" x2="36" y2="576"></line><line x1="72" y1="540" x2="108" y2="576"></line><line x1="108" y1="540" x2="144" y2="576"></line><line x1="144" y1="540" x2="180" y2="576"></line><line x1="216" y1="540" x2="180" y2="576"></line><line x1="216" y1="540" x2="252" y2="576"></line><line x1="252" y1="540" x2="288" y2="576"></line><line x1="324" y1="540" x2="288" y2="576"></line><line x1="360" y1="540" x2="324" y2="576"></line><line x1="396" y1="540" x2="360" y2="576"></line><line x1="432" y1="540" x2="396" y2="576"></line><line x1="432" y1="540" x2="468" y2="576"></line><line x1="504" y1="540" x2="468" y2="576"></line><line x1="504" y1="540" x2="540" y2="576"></line><line x1="576" y1="540" x2="540" y2="576"></line><line x1="576" y1="540" x2="612" y2="576"></line><line x1="612" y1="540" x2="648" y2="576"></line><line x1="684" y1="540" x2="648" y2="576"></line><line x1="684" y1="540" x2="720" y2="576"></line><line x1="756" y1="540" x2="720" y2="576"></line><line x1="792" y1="540" x2="756" y2="576"></line><line x1="792" y1="540" x2="828" y2="576"></line><line x1="864" y1="540" x2="828" y2="576"></line><line x1="900" y1="540" x2="864" y2="576"></line><line x1="900" y1="540" x2="936" y2="576"></line><line x1="972" y1="540" x2="936" y2="576"></line><line x1="972" y1="540" x2="1008" y2="576"></line><line x1="1008" y1="540" x2="1044" y2="576"></line><line x1="1080" y1="540" x2="1044" y2="576"></line><line x1="1116" y1="540" x2="1080" y2="576"></line><line x1="1116" y1="540" x2="1152" y2="576"></line><line x1="1152" y1="540" x2="1188" y2="576"></line><line x1="1224" y1="540" x2="1188" y2="576"></line><line x1="1224" y1="540" x2="1260" y2="576"></line><line x1="1260" y1="540" x2="1296" y2="576"></line><line x1="1332" y1="540" x2="1296" y2="576"></line><line x1="1332" y1="540" x2="1368" y2="576"></line><line x1="1368" y1="540" x2="1404" y2="576"></line><line x1="1440" y1="540" x2="1404" y2="576"></line><line x1="36" y1="576" x2="0" y2="612"></line><line x1="72" y1="576" x2="36" y2="612"></line><line x1="72" y1="576" x2="108" y2="612"></line><line x1="108" y1="576" x2="144" y2="612"></line><line x1="180" y1="576" x2="144" y2="612"></line><line x1="180" y1="576" x2="216" y2="612"></line><line x1="252" y1="576" x2="216" y2="612"></line><line x1="288" y1="576" x2="252" y2="612"></line><line x1="288" y1="576" x2="324" y2="612"></line><line x1="324" y1="576" x2="360" y2="612"></line><line x1="360" y1="576" x2="396" y2="612"></line><line x1="396" y1="576" x2="432" y2="612"></line><line x1="432" y1="576" x2="468" y2="612"></line><line x1="504" y1="576" x2="468" y2="612"></line><line x1="504" y1="576" x2="540" y2="612"></line><line x1="576" y1="576" x2="540" y2="612"></line><line x1="576" y1="576" x2="612" y2="612"></line><line x1="612" y1="576" x2="648" y2="612"></line><line x1="684" y1="576" x2="648" y2="612"></line><line x1="720" y1="576" x2="684" y2="612"></line><line x1="720" y1="576" x2="756" y2="612"></line><line x1="792" y1="576" x2="756" y2="612"></line><line x1="828" y1="576" x2="792" y2="612"></line><line x1="828" y1="576" x2="864" y2="612"></line><line x1="900" y1="576" x2="864" y2="612"></line><line x1="900" y1="576" x2="936" y2="612"></line><line x1="936" y1="576" x2="972" y2="612"></line><line x1="1008" y1="576" x2="972" y2="612"></line><line x1="1008" y1="576" x2="1044" y2="612"></line><line x1="1044" y1="576" x2="1080" y2="612"></line><line x1="1080" y1="576" x2="1116" y2="612"></line><line x1="1116" y1="576" x2="1152" y2="612"></line><line x1="1188" y1="576" x2="1152" y2="612"></line><line x1="1188" y1="576" x2="1224" y2="612"></line><line x1="1224" y1="576" x2="1260" y2="612"></line><line x1="1260" y1="576" x2="1296" y2="612"></line><line x1="1332" y1="576" x2="1296" y2="612"></line><line x1="1332" y1="576" x2="1368" y2="612"></line><line x1="1404" y1="576" x2="1368" y2="612"></line><line x1="1440" y1="576" x2="1404" y2="612"></line><line x1="0" y1="612" x2="36" y2="648"></line><line x1="72" y1="612" x2="36" y2="648"></line><line x1="72" y1="612" x2="108" y2="648"></line><line x1="108" y1="612" x2="144" y2="648"></line><line x1="144" y1="612" x2="180" y2="648"></line><line x1="216" y1="612" x2="180" y2="648"></line><line x1="216" y1="612" x2="252" y2="648"></line><line x1="288" y1="612" x2="252" y2="648"></line><line x1="288" y1="612" x2="324" y2="648"></line><line x1="324" y1="612" x2="360" y2="648"></line><line x1="360" y1="612" x2="396" y2="648"></line><line x1="432" y1="612" x2="396" y2="648"></line><line x1="432" y1="612" x2="468" y2="648"></line><line x1="468" y1="612" x2="504" y2="648"></line><line x1="540" y1="612" x2="504" y2="648"></line><line x1="576" y1="612" x2="540" y2="648"></line><line x1="612" y1="612" x2="576" y2="648"></line><line x1="648" y1="612" x2="612" y2="648"></line><line x1="684" y1="612" x2="648" y2="648"></line><line x1="684" y1="612" x2="720" y2="648"></line><line x1="756" y1="612" x2="720" y2="648"></line><line x1="756" y1="612" x2="792" y2="648"></line><line x1="792" y1="612" x2="828" y2="648"></line><line x1="864" y1="612" x2="828" y2="648"></line><line x1="864" y1="612" x2="900" y2="648"></line><line x1="936" y1="612" x2="900" y2="648"></line><line x1="936" y1="612" x2="972" y2="648"></line><line x1="1008" y1="612" x2="972" y2="648"></line><line x1="1008" y1="612" x2="1044" y2="648"></line><line x1="1080" y1="612" x2="1044" y2="648"></line><line x1="1116" y1="612" x2="1080" y2="648"></line><line x1="1116" y1="612" x2="1152" y2="648"></line><line x1="1152" y1="612" x2="1188" y2="648"></line><line x1="1188" y1="612" x2="1224" y2="648"></line><line x1="1260" y1="612" x2="1224" y2="648"></line><line x1="1260" y1="612" x2="1296" y2="648"></line><line x1="1296" y1="612" x2="1332" y2="648"></line><line x1="1368" y1="612" x2="1332" y2="648"></line><line x1="1404" y1="612" x2="1368" y2="648"></line><line x1="1440" y1="612" x2="1404" y2="648"></line><line x1="36" y1="648" x2="0" y2="684"></line><line x1="72" y1="648" x2="36" y2="684"></line><line x1="72" y1="648" x2="108" y2="684"></line><line x1="144" y1="648" x2="108" y2="684"></line><line x1="180" y1="648" x2="144" y2="684"></line><line x1="216" y1="648" x2="180" y2="684"></line><line x1="216" y1="648" x2="252" y2="684"></line><line x1="252" y1="648" x2="288" y2="684"></line><line x1="288" y1="648" x2="324" y2="684"></line><line x1="324" y1="648" x2="360" y2="684"></line><line x1="396" y1="648" x2="360" y2="684"></line><line x1="432" y1="648" x2="396" y2="684"></line><line x1="432" y1="648" x2="468" y2="684"></line><line x1="468" y1="648" x2="504" y2="684"></line><line x1="504" y1="648" x2="540" y2="684"></line><line x1="540" y1="648" x2="576" y2="684"></line><line x1="612" y1="648" x2="576" y2="684"></line><line x1="648" y1="648" x2="612" y2="684"></line><line x1="684" y1="648" x2="648" y2="684"></line><line x1="720" y1="648" x2="684" y2="684"></line><line x1="720" y1="648" x2="756" y2="684"></line><line x1="756" y1="648" x2="792" y2="684"></line><line x1="828" y1="648" x2="792" y2="684"></line><line x1="828" y1="648" x2="864" y2="684"></line><line x1="900" y1="648" x2="864" y2="684"></line><line x1="900" y1="648" x2="936" y2="684"></line><line x1="972" y1="648" x2="936" y2="684"></line><line x1="972" y1="648" x2="1008" y2="684"></line><line x1="1008" y1="648" x2="1044" y2="684"></line><line x1="1044" y1="648" x2="1080" y2="684"></line><line x1="1080" y1="648" x2="1116" y2="684"></line><line x1="1152" y1="648" x2="1116" y2="684"></line><line x1="1152" y1="648" x2="1188" y2="684"></line><line x1="1188" y1="648" x2="1224" y2="684"></line><line x1="1260" y1="648" x2="1224" y2="684"></line><line x1="1296" y1="648" x2="1260" y2="684"></line><line x1="1296" y1="648" x2="1332" y2="684"></line><line x1="1368" y1="648" x2="1332" y2="684"></line><line x1="1404" y1="648" x2="1368" y2="684"></line><line x1="1404" y1="648" x2="1440" y2="684"></line><line x1="36" y1="684" x2="0" y2="720"></line><line x1="72" y1="684" x2="36" y2="720"></line><line x1="108" y1="684" x2="72" y2="720"></line><line x1="108" y1="684" x2="144" y2="720"></line><line x1="144" y1="684" x2="180" y2="720"></line><line x1="216" y1="684" x2="180" y2="720"></line><line x1="252" y1="684" x2="216" y2="720"></line><line x1="252" y1="684" x2="288" y2="720"></line><line x1="324" y1="684" x2="288" y2="720"></line><line x1="360" y1="684" x2="324" y2="720"></line><line x1="396" y1="684" x2="360" y2="720"></line><line x1="432" y1="684" x2="396" y2="720"></line><line x1="468" y1="684" x2="432" y2="720"></line><line x1="504" y1="684" x2="468" y2="720"></line><line x1="540" y1="684" x2="504" y2="720"></line><line x1="540" y1="684" x2="576" y2="720"></line><line x1="612" y1="684" x2="576" y2="720"></line><line x1="612" y1="684" x2="648" y2="720"></line><line x1="684" y1="684" x2="648" y2="720"></line><line x1="720" y1="684" x2="684" y2="720"></line><line x1="720" y1="684" x2="756" y2="720"></line><line x1="756" y1="684" x2="792" y2="720"></line><line x1="792" y1="684" x2="828" y2="720"></line><line x1="828" y1="684" x2="864" y2="720"></line><line x1="864" y1="684" x2="900" y2="720"></line><line x1="936" y1="684" x2="900" y2="720"></line><line x1="972" y1="684" x2="936" y2="720"></line><line x1="1008" y1="684" x2="972" y2="720"></line><line x1="1008" y1="684" x2="1044" y2="720"></line><line x1="1044" y1="684" x2="1080" y2="720"></line><line x1="1080" y1="684" x2="1116" y2="720"></line><line x1="1152" y1="684" x2="1116" y2="720"></line><line x1="1152" y1="684" x2="1188" y2="720"></line><line x1="1188" y1="684" x2="1224" y2="720"></line><line x1="1260" y1="684" x2="1224" y2="720"></line><line x1="1296" y1="684" x2="1260" y2="720"></line><line x1="1296" y1="684" x2="1332" y2="720"></line><line x1="1332" y1="684" x2="1368" y2="720"></line><line x1="1404" y1="684" x2="1368" y2="720"></line><line x1="1404" y1="684" x2="1440" y2="720"></line><line x1="0" y1="720" x2="36" y2="756"></line><line x1="36" y1="720" x2="72" y2="756"></line><line x1="72" y1="720" x2="108" y2="756"></line><line x1="108" y1="720" x2="144" y2="756"></line><line x1="144" y1="720" x2="180" y2="756"></line><line x1="216" y1="720" x2="180" y2="756"></line><line x1="252" y1="720" x2="216" y2="756"></line><line x1="288" y1="720" x2="252" y2="756"></line><line x1="288" y1="720" x2="324" y2="756"></line><line x1="324" y1="720" x2="360" y2="756"></line><line x1="396" y1="720" x2="360" y2="756"></line><line x1="396" y1="720" x2="432" y2="756"></line><line x1="468" y1="720" x2="432" y2="756"></line><line x1="504" y1="720" x2="468" y2="756"></line><line x1="504" y1="720" x2="540" y2="756"></line><line x1="576" y1="720" x2="540" y2="756"></line><line x1="576" y1="720" x2="612" y2="756"></line><line x1="648" y1="720" x2="612" y2="756"></line><line x1="684" y1="720" x2="648" y2="756"></line><line x1="720" y1="720" x2="684" y2="756"></line><line x1="756" y1="720" x2="720" y2="756"></line><line x1="792" y1="720" x2="756" y2="756"></line><line x1="792" y1="720" x2="828" y2="756"></line><line x1="864" y1="720" x2="828" y2="756"></line><line x1="864" y1="720" x2="900" y2="756"></line><line x1="936" y1="720" x2="900" y2="756"></line><line x1="972" y1="720" x2="936" y2="756"></line><line x1="972" y1="720" x2="1008" y2="756"></line><line x1="1008" y1="720" x2="1044" y2="756"></line><line x1="1044" y1="720" x2="1080" y2="756"></line><line x1="1116" y1="720" x2="1080" y2="756"></line><line x1="1152" y1="720" x2="1116" y2="756"></line><line x1="1188" y1="720" x2="1152" y2="756"></line><line x1="1188" y1="720" x2="1224" y2="756"></line><line x1="1260" y1="720" x2="1224" y2="756"></line><line x1="1296" y1="720" x2="1260" y2="756"></line><line x1="1296" y1="720" x2="1332" y2="756"></line><line x1="1368" y1="720" x2="1332" y2="756"></line><line x1="1404" y1="720" x2="1368" y2="756"></line><line x1="1440" y1="720" x2="1404" y2="756"></line><line x1="36" y1="756" x2="0" y2="792"></line><line x1="72" y1="756" x2="36" y2="792"></line><line x1="108" y1="756" x2="72" y2="792"></line><line x1="108" y1="756" x2="144" y2="792"></line><line x1="180" y1="756" x2="144" y2="792"></line><line x1="180" y1="756" x2="216" y2="792"></line><line x1="252" y1="756" x2="216" y2="792"></line><line x1="288" y1="756" x2="252" y2="792"></line><line x1="324" y1="756" x2="288" y2="792"></line><line x1="360" y1="756" x2="324" y2="792"></line><line x1="360" y1="756" x2="396" y2="792"></line><line x1="396" y1="756" x2="432" y2="792"></line><line x1="432" y1="756" x2="468" y2="792"></line><line x1="504" y1="756" x2="468" y2="792"></line><line x1="504" y1="756" x2="540" y2="792"></line><line x1="540" y1="756" x2="576" y2="792"></line><line x1="576" y1="756" x2="612" y2="792"></line><line x1="612" y1="756" x2="648" y2="792"></line><line x1="684" y1="756" x2="648" y2="792"></line><line x1="720" y1="756" x2="684" y2="792"></line><line x1="756" y1="756" x2="720" y2="792"></line><line x1="756" y1="756" x2="792" y2="792"></line><line x1="792" y1="756" x2="828" y2="792"></line><line x1="864" y1="756" x2="828" y2="792"></line><line x1="864" y1="756" x2="900" y2="792"></line><line x1="900" y1="756" x2="936" y2="792"></line><line x1="972" y1="756" x2="936" y2="792"></line><line x1="1008" y1="756" x2="972" y2="792"></line><line x1="1008" y1="756" x2="1044" y2="792"></line><line x1="1044" y1="756" x2="1080" y2="792"></line><line x1="1080" y1="756" x2="1116" y2="792"></line><line x1="1152" y1="756" x2="1116" y2="792"></line><line x1="1152" y1="756" x2="1188" y2="792"></line><line x1="1224" y1="756" x2="1188" y2="792"></line><line x1="1224" y1="756" x2="1260" y2="792"></line><line x1="1260" y1="756" x2="1296" y2="792"></line><line x1="1296" y1="756" x2="1332" y2="792"></line><line x1="1332" y1="756" x2="1368" y2="792"></line><line x1="1368" y1="756" x2="1404" y2="792"></line><line x1="1404" y1="756" x2="1440" y2="792"></line><line x1="0" y1="792" x2="36" y2="828"></line><line x1="72" y1="792" x2="36" y2="828"></line><line x1="108" y1="792" x2="72" y2="828"></line><line x1="108" y1="792" x2="144" y2="828"></line><line x1="180" y1="792" x2="144" y2="828"></line><line x1="180" y1="792" x2="216" y2="828"></line><line x1="216" y1="792" x2="252" y2="828"></line><line x1="288" y1="792" x2="252" y2="828"></line><line x1="324" y1="792" x2="288" y2="828"></line><line x1="324" y1="792" x2="360" y2="828"></line><line x1="396" y1="792" x2="360" y2="828"></line><line x1="396" y1="792" x2="432" y2="828"></line><line x1="468" y1="792" x2="432" y2="828"></line><line x1="504" y1="792" x2="468" y2="828"></line><line x1="504" y1="792" x2="540" y2="828"></line><line x1="576" y1="792" x2="540" y2="828"></line><line x1="612" y1="792" x2="576" y2="828"></line><line x1="648" y1="792" x2="612" y2="828"></line><line x1="684" y1="792" x2="648" y2="828"></line><line x1="720" y1="792" x2="684" y2="828"></line><line x1="720" y1="792" x2="756" y2="828"></line><line x1="756" y1="792" x2="792" y2="828"></line><line x1="828" y1="792" x2="792" y2="828"></line><line x1="828" y1="792" x2="864" y2="828"></line><line x1="900" y1="792" x2="864" y2="828"></line><line x1="936" y1="792" x2="900" y2="828"></line><line x1="972" y1="792" x2="936" y2="828"></line><line x1="1008" y1="792" x2="972" y2="828"></line><line x1="1044" y1="792" x2="1008" y2="828"></line><line x1="1044" y1="792" x2="1080" y2="828"></line><line x1="1080" y1="792" x2="1116" y2="828"></line><line x1="1152" y1="792" x2="1116" y2="828"></line><line x1="1188" y1="792" x2="1152" y2="828"></line><line x1="1188" y1="792" x2="1224" y2="828"></line><line x1="1224" y1="792" x2="1260" y2="828"></line><line x1="1260" y1="792" x2="1296" y2="828"></line><line x1="1332" y1="792" x2="1296" y2="828"></line><line x1="1368" y1="792" x2="1332" y2="828"></line><line x1="1368" y1="792" x2="1404" y2="828"></line><line x1="1404" y1="792" x2="1440" y2="828"></line></g></svg>