<svg xmlns="http://www.w3.org/2000/svg" xmlns:xlink="http://www.w3.org/1999/xlink" width="2000" zoomAndPan="magnify" viewBox="0 0 1500 1499.999933" height="2000" preserveAspectRatio="xMidYMid meet" version="1.0"><defs><g/><clipPath id="0afc9f7020"><path d="M 745 301 L 1496.640625 301 L 1496.640625 331 L 745 331 Z M 745 301 " clip-rule="nonzero"/></clipPath><clipPath id="4ee77010cb"><rect x="0" width="1497" y="0" height="379"/></clipPath></defs><g transform="matrix(1, 0, 0, 1, 0, 386)"><g clip-path="url(#4ee77010cb)"><g fill="#7c3aed" fill-opacity="1"><g transform="translate(-2.15594, 286.866127)"><g><path d="M 108.75 3.484375 C 89.800781 3.484375 73.171875 -0.910156 58.859375 -9.703125 C 44.554688 -18.503906 33.441406 -30.785156 25.515625 -46.546875 C 17.585938 -62.304688 13.625 -80.523438 13.625 -101.203125 C 13.625 -121.890625 17.632812 -140.160156 25.65625 -156.015625 C 33.6875 -171.867188 45.09375 -184.242188 59.875 -193.140625 C 74.664062 -202.035156 92.117188 -206.484375 112.234375 -206.484375 C 135.046875 -206.484375 154.039062 -200.972656 169.21875 -189.953125 C 184.394531 -178.929688 194.207031 -163.753906 198.65625 -144.421875 L 170.515625 -144.421875 C 167.804688 -156.597656 161.378906 -166.265625 151.234375 -173.421875 C 141.085938 -180.578125 128.085938 -184.15625 112.234375 -184.15625 C 97.347656 -184.15625 84.394531 -180.816406 73.375 -174.140625 C 62.351562 -167.472656 53.796875 -157.953125 47.703125 -145.578125 C 41.609375 -133.203125 38.5625 -118.410156 38.5625 -101.203125 C 38.5625 -84.003906 41.554688 -69.21875 47.546875 -56.84375 C 53.546875 -44.46875 61.863281 -34.941406 72.5 -28.265625 C 83.132812 -21.597656 95.507812 -18.265625 109.625 -18.265625 C 131.269531 -18.265625 147.601562 -24.597656 158.625 -37.265625 C 169.644531 -49.929688 175.929688 -67.28125 177.484375 -89.3125 L 118.90625 -89.3125 L 118.90625 -108.453125 L 202.421875 -108.453125 L 202.421875 0 L 180.09375 0 L 178.0625 -33.34375 C 170.71875 -21.550781 161.726562 -12.460938 151.09375 -6.078125 C 140.457031 0.296875 126.34375 3.484375 108.75 3.484375 Z M 108.75 3.484375 "/></g></g></g><path fill="#7c3aed" d="M 211.582031 301.832031 L 488.25 301.832031 L 488.25 330.410156 L 211.582031 330.410156 Z M 211.582031 301.832031 " fill-opacity="1" fill-rule="nonzero"/><g fill="#7c3aed" fill-opacity="1"><g transform="translate(211.580803, 286.866127)"><g><path d="M 18.84375 0 L 18.84375 -143.84375 L 51.90625 -143.84375 L 55.390625 -116.875 C 60.609375 -126.15625 67.710938 -133.546875 76.703125 -139.046875 C 85.691406 -144.554688 96.273438 -147.3125 108.453125 -147.3125 L 108.453125 -108.171875 L 98.015625 -108.171875 C 89.898438 -108.171875 82.648438 -106.910156 76.265625 -104.390625 C 69.890625 -101.878906 64.910156 -97.53125 61.328125 -91.34375 C 57.753906 -85.15625 55.96875 -76.554688 55.96875 -65.546875 L 55.96875 0 Z M 18.84375 0 "/></g></g></g><g fill="#7c3aed" fill-opacity="1"><g transform="translate(320.620557, 286.866127)"><g><path d="M 88.734375 3.484375 C 74.234375 3.484375 61.375 0.390625 50.15625 -5.796875 C 38.945312 -11.984375 30.148438 -20.679688 23.765625 -31.890625 C 17.390625 -43.109375 14.203125 -56.066406 14.203125 -70.765625 C 14.203125 -85.648438 17.34375 -98.890625 23.625 -110.484375 C 29.914062 -122.085938 38.617188 -131.125 49.734375 -137.59375 C 60.847656 -144.070312 73.945312 -147.3125 89.03125 -147.3125 C 103.144531 -147.3125 115.613281 -144.21875 126.4375 -138.03125 C 137.269531 -131.851562 145.726562 -123.394531 151.8125 -112.65625 C 157.90625 -101.925781 160.953125 -89.988281 160.953125 -76.84375 C 160.953125 -74.71875 160.898438 -72.492188 160.796875 -70.171875 C 160.703125 -67.859375 160.5625 -65.445312 160.375 -62.9375 L 51.046875 -62.9375 C 51.816406 -51.71875 55.726562 -42.914062 62.78125 -36.53125 C 69.84375 -30.15625 78.398438 -26.96875 88.453125 -26.96875 C 95.992188 -26.96875 102.320312 -28.660156 107.4375 -32.046875 C 112.5625 -35.429688 116.382812 -39.828125 118.90625 -45.234375 L 156.59375 -45.234375 C 153.894531 -36.148438 149.398438 -27.882812 143.109375 -20.4375 C 136.828125 -13 129.09375 -7.148438 119.90625 -2.890625 C 110.726562 1.359375 100.335938 3.484375 88.734375 3.484375 Z M 89.03125 -117.15625 C 79.945312 -117.15625 71.921875 -114.59375 64.953125 -109.46875 C 57.992188 -104.351562 53.550781 -96.570312 51.625 -86.125 L 123.25 -86.125 C 122.664062 -95.601562 119.179688 -103.144531 112.796875 -108.75 C 106.421875 -114.351562 98.5 -117.15625 89.03125 -117.15625 Z M 89.03125 -117.15625 "/></g></g></g><g fill="#7c3aed" fill-opacity="1"><g transform="translate(488.250086, 286.866127)"><g><path d="M 67.859375 3.484375 C 55.867188 3.484375 45.910156 1.453125 37.984375 -2.609375 C 30.054688 -6.671875 24.160156 -12.082031 20.296875 -18.84375 C 16.429688 -25.613281 14.5 -32.960938 14.5 -40.890625 C 14.5 -55.585938 20.101562 -66.894531 31.3125 -74.8125 C 42.53125 -82.738281 57.804688 -86.703125 77.140625 -86.703125 L 116 -86.703125 L 116 -88.453125 C 116 -101.015625 112.710938 -110.535156 106.140625 -117.015625 C 99.566406 -123.492188 90.769531 -126.734375 79.75 -126.734375 C 70.28125 -126.734375 62.113281 -124.363281 55.25 -119.625 C 48.382812 -114.882812 44.082031 -107.972656 42.34375 -98.890625 L 17.40625 -98.890625 C 18.363281 -109.328125 21.890625 -118.125 27.984375 -125.28125 C 34.078125 -132.4375 41.664062 -137.894531 50.75 -141.65625 C 59.832031 -145.425781 69.5 -147.3125 79.75 -147.3125 C 99.851562 -147.3125 114.976562 -141.945312 125.125 -131.21875 C 135.28125 -120.488281 140.359375 -106.234375 140.359375 -88.453125 L 140.359375 0 L 118.609375 0 L 117.15625 -25.8125 C 113.09375 -17.6875 107.144531 -10.769531 99.3125 -5.0625 C 91.488281 0.632812 81.003906 3.484375 67.859375 3.484375 Z M 71.625 -17.109375 C 80.90625 -17.109375 88.878906 -19.523438 95.546875 -24.359375 C 102.222656 -29.191406 107.300781 -35.472656 110.78125 -43.203125 C 114.257812 -50.941406 116 -59.0625 116 -67.5625 L 116 -67.859375 L 79.171875 -67.859375 C 64.859375 -67.859375 54.753906 -65.390625 48.859375 -60.453125 C 42.960938 -55.523438 40.015625 -49.390625 40.015625 -42.046875 C 40.015625 -34.503906 42.769531 -28.460938 48.28125 -23.921875 C 53.789062 -19.378906 61.570312 -17.109375 71.625 -17.109375 Z M 71.625 -17.109375 "/></g></g></g><g fill="#7c3aed" fill-opacity="1"><g transform="translate(639.339824, 286.866127)"><g><path d="M 76.84375 0 C 63.695312 0 53.351562 -3.1875 45.8125 -9.5625 C 38.28125 -15.945312 34.515625 -27.453125 34.515625 -44.078125 L 34.515625 -123.25 L 9.5625 -123.25 L 9.5625 -143.84375 L 34.515625 -143.84375 L 37.703125 -178.34375 L 58.875 -178.34375 L 58.875 -143.84375 L 101.203125 -143.84375 L 101.203125 -123.25 L 58.875 -123.25 L 58.875 -44.078125 C 58.875 -34.992188 60.707031 -28.851562 64.375 -25.65625 C 68.050781 -22.46875 74.53125 -20.875 83.8125 -20.875 L 98.890625 -20.875 L 98.890625 0 Z M 76.84375 0 "/></g></g></g><g clip-path="url(#0afc9f7020)"><path fill="#7c3aed" d="M 745.785156 301.832031 L 1496.320312 301.832031 L 1496.320312 330.410156 L 745.785156 330.410156 Z M 745.785156 301.832031 " fill-opacity="1" fill-rule="nonzero"/></g><g fill="#7c3aed" fill-opacity="1"><g transform="translate(745.784464, 286.866127)"><g><path d="M 78.296875 3.484375 C 65.535156 3.484375 54.320312 1.40625 44.65625 -2.75 C 34.988281 -6.90625 27.253906 -12.65625 21.453125 -20 C 15.660156 -27.351562 12.179688 -35.863281 11.015625 -45.53125 L 48.4375 -45.53125 C 49.59375 -39.925781 52.734375 -35.140625 57.859375 -31.171875 C 62.984375 -27.210938 69.601562 -25.234375 77.71875 -25.234375 C 85.84375 -25.234375 91.785156 -26.875 95.546875 -30.15625 C 99.316406 -33.445312 101.203125 -37.21875 101.203125 -41.46875 C 101.203125 -47.65625 98.492188 -51.859375 93.078125 -54.078125 C 87.671875 -56.304688 80.132812 -58.484375 70.46875 -60.609375 C 64.28125 -61.960938 57.992188 -63.601562 51.609375 -65.53125 C 45.234375 -67.46875 39.382812 -69.9375 34.0625 -72.9375 C 28.75 -75.9375 24.445312 -79.800781 21.15625 -84.53125 C 17.875 -89.269531 16.234375 -95.117188 16.234375 -102.078125 C 16.234375 -114.835938 21.304688 -125.566406 31.453125 -134.265625 C 41.609375 -142.960938 55.867188 -147.3125 74.234375 -147.3125 C 91.253906 -147.3125 104.835938 -143.347656 114.984375 -135.421875 C 125.128906 -127.503906 131.171875 -116.582031 133.109375 -102.65625 L 98.015625 -102.65625 C 95.890625 -113.289062 87.867188 -118.609375 73.953125 -118.609375 C 66.992188 -118.609375 61.628906 -117.253906 57.859375 -114.546875 C 54.085938 -111.835938 52.203125 -108.457031 52.203125 -104.40625 C 52.203125 -100.144531 55.003906 -96.757812 60.609375 -94.25 C 66.210938 -91.738281 73.65625 -89.421875 82.9375 -87.296875 C 92.988281 -84.972656 102.21875 -82.410156 110.625 -79.609375 C 119.039062 -76.804688 125.757812 -72.648438 130.78125 -67.140625 C 135.8125 -61.628906 138.328125 -53.75 138.328125 -43.5 C 138.523438 -34.601562 136.207031 -26.578125 131.375 -19.421875 C 126.539062 -12.273438 119.578125 -6.671875 110.484375 -2.609375 C 101.398438 1.453125 90.671875 3.484375 78.296875 3.484375 Z M 78.296875 3.484375 "/></g></g></g><g fill="#7c3aed" fill-opacity="1"><g transform="translate(892.234218, 286.866127)"><g><path d="M 72.796875 3.484375 C 54.804688 3.484375 40.929688 -2.117188 31.171875 -13.328125 C 21.410156 -24.546875 16.53125 -40.984375 16.53125 -62.640625 L 16.53125 -143.84375 L 53.359375 -143.84375 L 53.359375 -66.125 C 53.359375 -53.75 55.867188 -44.273438 60.890625 -37.703125 C 65.921875 -31.128906 73.851562 -27.84375 84.6875 -27.84375 C 94.925781 -27.84375 103.378906 -31.515625 110.046875 -38.859375 C 116.722656 -46.203125 120.0625 -56.445312 120.0625 -69.59375 L 120.0625 -143.84375 L 157.1875 -143.84375 L 157.1875 0 L 124.40625 0 L 121.515625 -24.359375 C 117.066406 -15.847656 110.632812 -9.078125 102.21875 -4.046875 C 93.8125 0.972656 84.003906 3.484375 72.796875 3.484375 Z M 72.796875 3.484375 "/></g></g></g><g fill="#7c3aed" fill-opacity="1"><g transform="translate(1062.753968, 286.866127)"><g><path d="M 18.84375 0 L 18.84375 -143.84375 L 51.625 -143.84375 L 54.8125 -124.40625 C 59.445312 -131.363281 65.582031 -136.921875 73.21875 -141.078125 C 80.863281 -145.234375 89.710938 -147.3125 99.765625 -147.3125 C 121.992188 -147.3125 137.75 -138.710938 147.03125 -121.515625 C 152.25 -129.441406 159.253906 -135.722656 168.046875 -140.359375 C 176.847656 -144.992188 186.46875 -147.3125 196.90625 -147.3125 C 215.664062 -147.3125 230.070312 -141.707031 240.125 -130.5 C 250.175781 -119.289062 255.203125 -102.859375 255.203125 -81.203125 L 255.203125 0 L 218.078125 0 L 218.078125 -77.71875 C 218.078125 -90.09375 215.707031 -99.566406 210.96875 -106.140625 C 206.238281 -112.710938 198.941406 -116 189.078125 -116 C 179.023438 -116 170.953125 -112.320312 164.859375 -104.96875 C 158.773438 -97.625 155.734375 -87.378906 155.734375 -74.234375 L 155.734375 0 L 118.609375 0 L 118.609375 -77.71875 C 118.609375 -90.09375 116.191406 -99.566406 111.359375 -106.140625 C 106.523438 -112.710938 99.082031 -116 89.03125 -116 C 79.164062 -116 71.1875 -112.320312 65.09375 -104.96875 C 59.007812 -97.625 55.96875 -87.378906 55.96875 -74.234375 L 55.96875 0 Z M 18.84375 0 "/></g></g></g><g fill="#7c3aed" fill-opacity="1"><g transform="translate(1328.683682, 286.866127)"><g><path d="M 88.734375 3.484375 C 74.234375 3.484375 61.375 0.390625 50.15625 -5.796875 C 38.945312 -11.984375 30.148438 -20.679688 23.765625 -31.890625 C 17.390625 -43.109375 14.203125 -56.066406 14.203125 -70.765625 C 14.203125 -85.648438 17.34375 -98.890625 23.625 -110.484375 C 29.914062 -122.085938 38.617188 -131.125 49.734375 -137.59375 C 60.847656 -144.070312 73.945312 -147.3125 89.03125 -147.3125 C 103.144531 -147.3125 115.613281 -144.21875 126.4375 -138.03125 C 137.269531 -131.851562 145.726562 -123.394531 151.8125 -112.65625 C 157.90625 -101.925781 160.953125 -89.988281 160.953125 -76.84375 C 160.953125 -74.71875 160.898438 -72.492188 160.796875 -70.171875 C 160.703125 -67.859375 160.5625 -65.445312 160.375 -62.9375 L 51.046875 -62.9375 C 51.816406 -51.71875 55.726562 -42.914062 62.78125 -36.53125 C 69.84375 -30.15625 78.398438 -26.96875 88.453125 -26.96875 C 95.992188 -26.96875 102.320312 -28.660156 107.4375 -32.046875 C 112.5625 -35.429688 116.382812 -39.828125 118.90625 -45.234375 L 156.59375 -45.234375 C 153.894531 -36.148438 149.398438 -27.882812 143.109375 -20.4375 C 136.828125 -13 129.09375 -7.148438 119.90625 -2.890625 C 110.726562 1.359375 100.335938 3.484375 88.734375 3.484375 Z M 89.03125 -117.15625 C 79.945312 -117.15625 71.921875 -114.59375 64.953125 -109.46875 C 57.992188 -104.351562 53.550781 -96.570312 51.625 -86.125 L 123.25 -86.125 C 122.664062 -95.601562 119.179688 -103.144531 112.796875 -108.75 C 106.421875 -114.351562 98.5 -117.15625 89.03125 -117.15625 Z M 89.03125 -117.15625 "/></g></g></g></g></g><g fill="#00c892" fill-opacity="1"><g transform="translate(750.316375, 799.349959)"><g><path d="M 4 0 L 4 -37.796875 L 17.28125 -37.796875 C 19.945312 -37.796875 22.148438 -37.375 23.890625 -36.53125 C 25.640625 -35.6875 26.945312 -34.535156 27.8125 -33.078125 C 28.675781 -31.617188 29.109375 -29.988281 29.109375 -28.1875 C 29.109375 -25.738281 28.445312 -23.8125 27.125 -22.40625 C 25.8125 -21 24.238281 -20.03125 22.40625 -19.5 C 23.8125 -19.238281 25.085938 -18.675781 26.234375 -17.8125 C 27.390625 -16.957031 28.300781 -15.878906 28.96875 -14.578125 C 29.632812 -13.285156 29.96875 -11.863281 29.96875 -10.3125 C 29.96875 -8.40625 29.5 -6.664062 28.5625 -5.09375 C 27.625 -3.53125 26.238281 -2.289062 24.40625 -1.375 C 22.570312 -0.457031 20.34375 0 17.71875 0 Z M 8.53125 -21.28125 L 16.953125 -21.28125 C 19.367188 -21.28125 21.222656 -21.84375 22.515625 -22.96875 C 23.816406 -24.101562 24.46875 -25.679688 24.46875 -27.703125 C 24.46875 -29.609375 23.828125 -31.132812 22.546875 -32.28125 C 21.265625 -33.4375 19.347656 -34.015625 16.796875 -34.015625 L 8.53125 -34.015625 Z M 8.53125 -3.78125 L 17.21875 -3.78125 C 19.8125 -3.78125 21.8125 -4.378906 23.21875 -5.578125 C 24.625 -6.785156 25.328125 -8.472656 25.328125 -10.640625 C 25.328125 -12.765625 24.585938 -14.460938 23.109375 -15.734375 C 21.628906 -17.015625 19.632812 -17.65625 17.125 -17.65625 L 8.53125 -17.65625 Z M 8.53125 -3.78125 "/></g></g></g><g fill="#00c892" fill-opacity="1"><g transform="translate(782.817284, 799.349959)"><g><path d="M 13.5 0.640625 C 10.332031 0.640625 7.8125 -0.316406 5.9375 -2.234375 C 4.0625 -4.160156 3.125 -7.125 3.125 -11.125 L 3.125 -26.78125 L 7.671875 -26.78125 L 7.671875 -11.609375 C 7.671875 -6.023438 9.957031 -3.234375 14.53125 -3.234375 C 16.863281 -3.234375 18.796875 -4.070312 20.328125 -5.75 C 21.859375 -7.425781 22.625 -9.8125 22.625 -12.90625 L 22.625 -26.78125 L 27.15625 -26.78125 L 27.15625 0 L 23.0625 0 L 22.734375 -4.8125 C 21.898438 -3.113281 20.664062 -1.78125 19.03125 -0.8125 C 17.394531 0.15625 15.550781 0.640625 13.5 0.640625 Z M 13.5 0.640625 "/></g></g></g><g fill="#00c892" fill-opacity="1"><g transform="translate(813.698545, 799.349959)"><g><path d="M 6.484375 -32.71875 C 5.578125 -32.71875 4.828125 -33.015625 4.234375 -33.609375 C 3.640625 -34.203125 3.34375 -34.953125 3.34375 -35.859375 C 3.34375 -36.722656 3.640625 -37.441406 4.234375 -38.015625 C 4.828125 -38.585938 5.578125 -38.875 6.484375 -38.875 C 7.347656 -38.875 8.082031 -38.585938 8.6875 -38.015625 C 9.300781 -37.441406 9.609375 -36.722656 9.609375 -35.859375 C 9.609375 -34.953125 9.300781 -34.203125 8.6875 -33.609375 C 8.082031 -33.015625 7.347656 -32.71875 6.484375 -32.71875 Z M 4.21875 0 L 4.21875 -26.78125 L 8.75 -26.78125 L 8.75 0 Z M 4.21875 0 "/></g></g></g><g fill="#00c892" fill-opacity="1"><g transform="translate(826.601723, 799.349959)"><g><path d="M 3.71875 0 L 3.71875 -38.875 L 8.265625 -38.875 L 8.265625 0 Z M 3.71875 0 "/></g></g></g><g fill="#00c892" fill-opacity="1"><g transform="translate(838.587108, 799.349959)"><g><path d="M 15.875 0.640625 C 13.207031 0.640625 10.875 0.03125 8.875 -1.1875 C 6.882812 -2.414062 5.335938 -4.085938 4.234375 -6.203125 C 3.140625 -8.328125 2.59375 -10.742188 2.59375 -13.453125 C 2.59375 -16.148438 3.148438 -18.550781 4.265625 -20.65625 C 5.378906 -22.757812 6.925781 -24.414062 8.90625 -25.625 C 10.882812 -26.832031 13.226562 -27.4375 15.9375 -27.4375 C 18.125 -27.4375 20.0625 -26.984375 21.75 -26.078125 C 23.445312 -25.179688 24.765625 -23.921875 25.703125 -22.296875 L 25.703125 -38.875 L 30.234375 -38.875 L 30.234375 0 L 26.140625 0 L 25.703125 -4.421875 C 24.835938 -3.128906 23.59375 -1.960938 21.96875 -0.921875 C 20.351562 0.117188 18.320312 0.640625 15.875 0.640625 Z M 16.359375 -3.296875 C 18.160156 -3.296875 19.753906 -3.71875 21.140625 -4.5625 C 22.523438 -5.40625 23.601562 -6.582031 24.375 -8.09375 C 25.15625 -9.613281 25.546875 -11.378906 25.546875 -13.390625 C 25.546875 -15.410156 25.15625 -17.175781 24.375 -18.6875 C 23.601562 -20.195312 22.523438 -21.375 21.140625 -22.21875 C 19.753906 -23.0625 18.160156 -23.484375 16.359375 -23.484375 C 14.597656 -23.484375 13.023438 -23.0625 11.640625 -22.21875 C 10.253906 -21.375 9.171875 -20.195312 8.390625 -18.6875 C 7.617188 -17.175781 7.234375 -15.410156 7.234375 -13.390625 C 7.234375 -11.378906 7.617188 -9.613281 8.390625 -8.09375 C 9.171875 -6.582031 10.253906 -5.40625 11.640625 -4.5625 C 13.023438 -3.71875 14.597656 -3.296875 16.359375 -3.296875 Z M 16.359375 -3.296875 "/></g></g></g><g fill="#00c892" fill-opacity="1"><g transform="translate(872.491703, 799.349959)"><g><path d="M 0.109375 6.421875 L 3.234375 -5.515625 L 7.9375 -5.515625 L 3.234375 6.421875 Z M 0.109375 6.421875 "/></g></g></g><g fill="#00c892" fill-opacity="1"><g transform="translate(882.101604, 799.349959)"><g/></g></g><g fill="#00c892" fill-opacity="1"><g transform="translate(896.408479, 799.349959)"><g><path d="M 16.03125 0.640625 C 13.257812 0.640625 10.847656 0.140625 8.796875 -0.859375 C 6.742188 -1.867188 5.160156 -3.273438 4.046875 -5.078125 C 2.929688 -6.878906 2.375 -8.96875 2.375 -11.34375 L 7.125 -11.34375 C 7.125 -9.863281 7.46875 -8.503906 8.15625 -7.265625 C 8.84375 -6.023438 9.84375 -5.035156 11.15625 -4.296875 C 12.46875 -3.554688 14.09375 -3.1875 16.03125 -3.1875 C 18.59375 -3.1875 20.570312 -3.796875 21.96875 -5.015625 C 23.375 -6.242188 24.078125 -7.773438 24.078125 -9.609375 C 24.078125 -11.117188 23.753906 -12.332031 23.109375 -13.25 C 22.460938 -14.175781 21.585938 -14.925781 20.484375 -15.5 C 19.390625 -16.070312 18.128906 -16.570312 16.703125 -17 C 15.285156 -17.4375 13.804688 -17.925781 12.265625 -18.46875 C 9.347656 -19.476562 7.1875 -20.726562 5.78125 -22.21875 C 4.375 -23.71875 3.671875 -25.671875 3.671875 -28.078125 C 3.640625 -30.097656 4.109375 -31.890625 5.078125 -33.453125 C 6.046875 -35.015625 7.421875 -36.238281 9.203125 -37.125 C 10.984375 -38.007812 13.097656 -38.453125 15.546875 -38.453125 C 17.960938 -38.453125 20.0625 -38 21.84375 -37.09375 C 23.625 -36.195312 25.007812 -34.957031 26 -33.375 C 26.988281 -31.789062 27.503906 -29.988281 27.546875 -27.96875 L 22.78125 -27.96875 C 22.78125 -29.007812 22.507812 -30.039062 21.96875 -31.0625 C 21.4375 -32.09375 20.617188 -32.929688 19.515625 -33.578125 C 18.421875 -34.234375 17.046875 -34.5625 15.390625 -34.5625 C 13.335938 -34.59375 11.65625 -34.066406 10.34375 -32.984375 C 9.03125 -31.910156 8.375 -30.421875 8.375 -28.515625 C 8.375 -26.890625 8.832031 -25.644531 9.75 -24.78125 C 10.664062 -23.914062 11.953125 -23.203125 13.609375 -22.640625 C 15.265625 -22.085938 17.171875 -21.453125 19.328125 -20.734375 C 21.128906 -20.085938 22.75 -19.332031 24.1875 -18.46875 C 25.632812 -17.601562 26.757812 -16.484375 27.5625 -15.109375 C 28.375 -13.742188 28.78125 -12 28.78125 -9.875 C 28.78125 -8.082031 28.3125 -6.382812 27.375 -4.78125 C 26.4375 -3.175781 25.019531 -1.867188 23.125 -0.859375 C 21.238281 0.140625 18.875 0.640625 16.03125 0.640625 Z M 16.03125 0.640625 "/></g></g></g><g fill="#00c892" fill-opacity="1"><g transform="translate(927.613665, 799.349959)"><g><path d="M 14.3125 0 C 11.863281 0 9.9375 -0.59375 8.53125 -1.78125 C 7.125 -2.96875 6.421875 -5.109375 6.421875 -8.203125 L 6.421875 -22.953125 L 1.78125 -22.953125 L 1.78125 -26.78125 L 6.421875 -26.78125 L 7.015625 -33.203125 L 10.96875 -33.203125 L 10.96875 -26.78125 L 18.84375 -26.78125 L 18.84375 -22.953125 L 10.96875 -22.953125 L 10.96875 -8.203125 C 10.96875 -6.515625 11.304688 -5.375 11.984375 -4.78125 C 12.671875 -4.1875 13.878906 -3.890625 15.609375 -3.890625 L 18.40625 -3.890625 L 18.40625 0 Z M 14.3125 0 "/></g></g></g><g fill="#00c892" fill-opacity="1"><g transform="translate(948.507107, 799.349959)"><g><path d="M 6.640625 11.875 L 13.28125 -2.59375 L 11.71875 -2.59375 L 1.078125 -26.78125 L 6 -26.78125 L 14.84375 -5.9375 L 24.25 -26.78125 L 28.9375 -26.78125 L 11.390625 11.875 Z M 6.640625 11.875 "/></g></g></g><g fill="#00c892" fill-opacity="1"><g transform="translate(978.524545, 799.349959)"><g><path d="M 3.71875 0 L 3.71875 -38.875 L 8.265625 -38.875 L 8.265625 0 Z M 3.71875 0 "/></g></g></g><g fill="#00c892" fill-opacity="1"><g transform="translate(990.509941, 799.349959)"><g><path d="M 15.765625 0.640625 C 13.210938 0.640625 10.945312 0.0546875 8.96875 -1.109375 C 6.988281 -2.273438 5.429688 -3.898438 4.296875 -5.984375 C 3.160156 -8.078125 2.59375 -10.546875 2.59375 -13.390625 C 2.59375 -16.203125 3.148438 -18.660156 4.265625 -20.765625 C 5.378906 -22.867188 6.9375 -24.503906 8.9375 -25.671875 C 10.9375 -26.847656 13.25 -27.4375 15.875 -27.4375 C 18.46875 -27.4375 20.707031 -26.847656 22.59375 -25.671875 C 24.488281 -24.503906 25.9375 -22.96875 26.9375 -21.0625 C 27.945312 -19.15625 28.453125 -17.101562 28.453125 -14.90625 C 28.453125 -14.507812 28.441406 -14.113281 28.421875 -13.71875 C 28.410156 -13.320312 28.40625 -12.867188 28.40625 -12.359375 L 7.078125 -12.359375 C 7.179688 -10.304688 7.65625 -8.601562 8.5 -7.25 C 9.351562 -5.90625 10.414062 -4.890625 11.6875 -4.203125 C 12.96875 -3.523438 14.328125 -3.1875 15.765625 -3.1875 C 17.640625 -3.1875 19.207031 -3.617188 20.46875 -4.484375 C 21.726562 -5.347656 22.644531 -6.515625 23.21875 -7.984375 L 27.703125 -7.984375 C 26.984375 -5.503906 25.601562 -3.445312 23.5625 -1.8125 C 21.53125 -0.175781 18.929688 0.640625 15.765625 0.640625 Z M 15.765625 -23.59375 C 13.609375 -23.59375 11.691406 -22.9375 10.015625 -21.625 C 8.335938 -20.3125 7.375 -18.394531 7.125 -15.875 L 23.96875 -15.875 C 23.863281 -18.289062 23.035156 -20.179688 21.484375 -21.546875 C 19.941406 -22.910156 18.035156 -23.59375 15.765625 -23.59375 Z M 15.765625 -23.59375 "/></g></g></g><g fill="#00c892" fill-opacity="1"><g transform="translate(1021.229223, 799.349959)"><g><path d="M 0.109375 6.421875 L 3.234375 -5.515625 L 7.9375 -5.515625 L 3.234375 6.421875 Z M 0.109375 6.421875 "/></g></g></g><g fill="#00c892" fill-opacity="1"><g transform="translate(1030.839146, 799.349959)"><g/></g></g><g fill="#00c892" fill-opacity="1"><g transform="translate(1045.145999, 799.349959)"><g><path d="M 16.03125 0.640625 C 13.257812 0.640625 10.847656 0.140625 8.796875 -0.859375 C 6.742188 -1.867188 5.160156 -3.273438 4.046875 -5.078125 C 2.929688 -6.878906 2.375 -8.96875 2.375 -11.34375 L 7.125 -11.34375 C 7.125 -9.863281 7.46875 -8.503906 8.15625 -7.265625 C 8.84375 -6.023438 9.84375 -5.035156 11.15625 -4.296875 C 12.46875 -3.554688 14.09375 -3.1875 16.03125 -3.1875 C 18.59375 -3.1875 20.570312 -3.796875 21.96875 -5.015625 C 23.375 -6.242188 24.078125 -7.773438 24.078125 -9.609375 C 24.078125 -11.117188 23.753906 -12.332031 23.109375 -13.25 C 22.460938 -14.175781 21.585938 -14.925781 20.484375 -15.5 C 19.390625 -16.070312 18.128906 -16.570312 16.703125 -17 C 15.285156 -17.4375 13.804688 -17.925781 12.265625 -18.46875 C 9.347656 -19.476562 7.1875 -20.726562 5.78125 -22.21875 C 4.375 -23.71875 3.671875 -25.671875 3.671875 -28.078125 C 3.640625 -30.097656 4.109375 -31.890625 5.078125 -33.453125 C 6.046875 -35.015625 7.421875 -36.238281 9.203125 -37.125 C 10.984375 -38.007812 13.097656 -38.453125 15.546875 -38.453125 C 17.960938 -38.453125 20.0625 -38 21.84375 -37.09375 C 23.625 -36.195312 25.007812 -34.957031 26 -33.375 C 26.988281 -31.789062 27.503906 -29.988281 27.546875 -27.96875 L 22.78125 -27.96875 C 22.78125 -29.007812 22.507812 -30.039062 21.96875 -31.0625 C 21.4375 -32.09375 20.617188 -32.929688 19.515625 -33.578125 C 18.421875 -34.234375 17.046875 -34.5625 15.390625 -34.5625 C 13.335938 -34.59375 11.65625 -34.066406 10.34375 -32.984375 C 9.03125 -31.910156 8.375 -30.421875 8.375 -28.515625 C 8.375 -26.890625 8.832031 -25.644531 9.75 -24.78125 C 10.664062 -23.914062 11.953125 -23.203125 13.609375 -22.640625 C 15.265625 -22.085938 17.171875 -21.453125 19.328125 -20.734375 C 21.128906 -20.085938 22.75 -19.332031 24.1875 -18.46875 C 25.632812 -17.601562 26.757812 -16.484375 27.5625 -15.109375 C 28.375 -13.742188 28.78125 -12 28.78125 -9.875 C 28.78125 -8.082031 28.3125 -6.382812 27.375 -4.78125 C 26.4375 -3.175781 25.019531 -1.867188 23.125 -0.859375 C 21.238281 0.140625 18.875 0.640625 16.03125 0.640625 Z M 16.03125 0.640625 "/></g></g></g><g fill="#00c892" fill-opacity="1"><g transform="translate(1076.351197, 799.349959)"><g><path d="M 3.71875 0 L 3.71875 -38.875 L 8.265625 -38.875 L 8.265625 -22.1875 C 9.160156 -23.84375 10.4375 -25.128906 12.09375 -26.046875 C 13.75 -26.972656 15.550781 -27.4375 17.5 -27.4375 C 20.59375 -27.4375 23.070312 -26.472656 24.9375 -24.546875 C 26.8125 -22.617188 27.75 -19.65625 27.75 -15.65625 L 27.75 0 L 23.28125 0 L 23.28125 -15.171875 C 23.28125 -20.753906 21.03125 -23.546875 16.53125 -23.546875 C 14.1875 -23.546875 12.222656 -22.707031 10.640625 -21.03125 C 9.054688 -19.351562 8.265625 -16.96875 8.265625 -13.875 L 8.265625 0 Z M 3.71875 0 "/></g></g></g><g fill="#00c892" fill-opacity="1"><g transform="translate(1107.232458, 799.349959)"><g><path d="M 12.640625 0.640625 C 10.398438 0.640625 8.539062 0.265625 7.0625 -0.484375 C 5.59375 -1.242188 4.5 -2.253906 3.78125 -3.515625 C 3.0625 -4.773438 2.703125 -6.140625 2.703125 -7.609375 C 2.703125 -10.347656 3.742188 -12.453125 5.828125 -13.921875 C 7.921875 -15.398438 10.765625 -16.140625 14.359375 -16.140625 L 21.59375 -16.140625 L 21.59375 -16.46875 C 21.59375 -18.8125 20.976562 -20.582031 19.75 -21.78125 C 18.53125 -22.988281 16.894531 -23.59375 14.84375 -23.59375 C 13.082031 -23.59375 11.5625 -23.148438 10.28125 -22.265625 C 9.007812 -21.390625 8.210938 -20.101562 7.890625 -18.40625 L 3.234375 -18.40625 C 3.421875 -20.351562 4.078125 -21.992188 5.203125 -23.328125 C 6.335938 -24.660156 7.75 -25.675781 9.4375 -26.375 C 11.132812 -27.082031 12.9375 -27.4375 14.84375 -27.4375 C 18.59375 -27.4375 21.410156 -26.4375 23.296875 -24.4375 C 25.191406 -22.4375 26.140625 -19.78125 26.140625 -16.46875 L 26.140625 0 L 22.09375 0 L 21.8125 -4.8125 C 21.0625 -3.289062 19.957031 -2 18.5 -0.9375 C 17.039062 0.113281 15.085938 0.640625 12.640625 0.640625 Z M 13.34375 -3.1875 C 15.070312 -3.1875 16.554688 -3.632812 17.796875 -4.53125 C 19.035156 -5.4375 19.976562 -6.609375 20.625 -8.046875 C 21.269531 -9.484375 21.59375 -10.992188 21.59375 -12.578125 L 21.59375 -12.640625 L 14.734375 -12.640625 C 12.078125 -12.640625 10.195312 -12.175781 9.09375 -11.25 C 8 -10.332031 7.453125 -9.191406 7.453125 -7.828125 C 7.453125 -6.421875 7.960938 -5.296875 8.984375 -4.453125 C 10.015625 -3.609375 11.46875 -3.1875 13.34375 -3.1875 Z M 13.34375 -3.1875 "/></g></g></g><g fill="#00c892" fill-opacity="1"><g transform="translate(1136.440089, 799.349959)"><g><path d="M 3.71875 0 L 3.71875 -26.78125 L 7.828125 -26.78125 L 8.203125 -21.65625 C 9.035156 -23.414062 10.296875 -24.816406 11.984375 -25.859375 C 13.679688 -26.910156 15.769531 -27.4375 18.25 -27.4375 L 18.25 -22.6875 L 17.015625 -22.6875 C 15.429688 -22.6875 13.972656 -22.40625 12.640625 -21.84375 C 11.304688 -21.28125 10.242188 -20.332031 9.453125 -19 C 8.660156 -17.675781 8.265625 -15.84375 8.265625 -13.5 L 8.265625 0 Z M 3.71875 0 "/></g></g></g><g fill="#00c892" fill-opacity="1"><g transform="translate(1156.037774, 799.349959)"><g><path d="M 15.765625 0.640625 C 13.210938 0.640625 10.945312 0.0546875 8.96875 -1.109375 C 6.988281 -2.273438 5.429688 -3.898438 4.296875 -5.984375 C 3.160156 -8.078125 2.59375 -10.546875 2.59375 -13.390625 C 2.59375 -16.203125 3.148438 -18.660156 4.265625 -20.765625 C 5.378906 -22.867188 6.9375 -24.503906 8.9375 -25.671875 C 10.9375 -26.847656 13.25 -27.4375 15.875 -27.4375 C 18.46875 -27.4375 20.707031 -26.847656 22.59375 -25.671875 C 24.488281 -24.503906 25.9375 -22.96875 26.9375 -21.0625 C 27.945312 -19.15625 28.453125 -17.101562 28.453125 -14.90625 C 28.453125 -14.507812 28.441406 -14.113281 28.421875 -13.71875 C 28.410156 -13.320312 28.40625 -12.867188 28.40625 -12.359375 L 7.078125 -12.359375 C 7.179688 -10.304688 7.65625 -8.601562 8.5 -7.25 C 9.351562 -5.90625 10.414062 -4.890625 11.6875 -4.203125 C 12.96875 -3.523438 14.328125 -3.1875 15.765625 -3.1875 C 17.640625 -3.1875 19.207031 -3.617188 20.46875 -4.484375 C 21.726562 -5.347656 22.644531 -6.515625 23.21875 -7.984375 L 27.703125 -7.984375 C 26.984375 -5.503906 25.601562 -3.445312 23.5625 -1.8125 C 21.53125 -0.175781 18.929688 0.640625 15.765625 0.640625 Z M 15.765625 -23.59375 C 13.609375 -23.59375 11.691406 -22.9375 10.015625 -21.625 C 8.335938 -20.3125 7.375 -18.394531 7.125 -15.875 L 23.96875 -15.875 C 23.863281 -18.289062 23.035156 -20.179688 21.484375 -21.546875 C 19.941406 -22.910156 18.035156 -23.59375 15.765625 -23.59375 Z M 15.765625 -23.59375 "/></g></g></g><g fill="#00c892" fill-opacity="1"><g transform="translate(1186.757101, 799.349959)"><g><path d="M 5.296875 0.265625 C 4.390625 0.265625 3.640625 -0.03125 3.046875 -0.625 C 2.453125 -1.21875 2.15625 -1.945312 2.15625 -2.8125 C 2.15625 -3.675781 2.453125 -4.40625 3.046875 -5 C 3.640625 -5.59375 4.390625 -5.890625 5.296875 -5.890625 C 6.160156 -5.890625 6.890625 -5.59375 7.484375 -5 C 8.078125 -4.40625 8.375 -3.675781 8.375 -2.8125 C 8.375 -1.945312 8.078125 -1.21875 7.484375 -0.625 C 6.890625 -0.03125 6.160156 0.265625 5.296875 0.265625 Z M 5.296875 0.265625 "/></g></g></g><g fill="#00c892" fill-opacity="1"><g transform="translate(1197.284795, 799.349959)"><g/></g></g><g fill="#00c892" fill-opacity="1"><g transform="translate(1211.591694, 799.349959)"><g><path d="M 4 0 L 4 -37.796875 L 27.375 -37.796875 L 27.375 -34.078125 L 8.53125 -34.078125 L 8.53125 -20.890625 L 25.765625 -20.890625 L 25.765625 -17.21875 L 8.53125 -17.21875 L 8.53125 -3.71875 L 27.375 -3.71875 L 27.375 0 Z M 4 0 "/></g></g></g><g fill="#00c892" fill-opacity="1"><g transform="translate(1242.041032, 799.349959)"><g><path d="M 5.1875 0 L 5.1875 -22.953125 L 1.140625 -22.953125 L 1.140625 -26.78125 L 5.1875 -26.78125 L 5.1875 -31.421875 C 5.1875 -34.015625 5.832031 -35.90625 7.125 -37.09375 C 8.425781 -38.28125 10.316406 -38.875 12.796875 -38.875 L 15.5 -38.875 L 15.5 -34.984375 L 13.5 -34.984375 C 12.132812 -34.984375 11.160156 -34.703125 10.578125 -34.140625 C 10.003906 -33.585938 9.71875 -32.644531 9.71875 -31.3125 L 9.71875 -26.78125 L 16.3125 -26.78125 L 16.3125 -22.953125 L 9.71875 -22.953125 L 9.71875 0 Z M 5.1875 0 "/></g></g></g><g fill="#00c892" fill-opacity="1"><g transform="translate(1260.019104, 799.349959)"><g><path d="M 5.1875 0 L 5.1875 -22.953125 L 1.140625 -22.953125 L 1.140625 -26.78125 L 5.1875 -26.78125 L 5.1875 -31.421875 C 5.1875 -34.015625 5.832031 -35.90625 7.125 -37.09375 C 8.425781 -38.28125 10.316406 -38.875 12.796875 -38.875 L 15.5 -38.875 L 15.5 -34.984375 L 13.5 -34.984375 C 12.132812 -34.984375 11.160156 -34.703125 10.578125 -34.140625 C 10.003906 -33.585938 9.71875 -32.644531 9.71875 -31.3125 L 9.71875 -26.78125 L 16.3125 -26.78125 L 16.3125 -22.953125 L 9.71875 -22.953125 L 9.71875 0 Z M 5.1875 0 "/></g></g></g><g fill="#00c892" fill-opacity="1"><g transform="translate(1277.997175, 799.349959)"><g><path d="M 15.9375 0.640625 C 13.414062 0.640625 11.144531 0.0664062 9.125 -1.078125 C 7.113281 -2.234375 5.519531 -3.863281 4.34375 -5.96875 C 3.175781 -8.070312 2.59375 -10.546875 2.59375 -13.390625 C 2.59375 -16.234375 3.1875 -18.707031 4.375 -20.8125 C 5.5625 -22.914062 7.171875 -24.546875 9.203125 -25.703125 C 11.242188 -26.859375 13.519531 -27.4375 16.03125 -27.4375 C 18.550781 -27.4375 20.816406 -26.859375 22.828125 -25.703125 C 24.847656 -24.546875 26.441406 -22.914062 27.609375 -20.8125 C 28.785156 -18.707031 29.375 -16.234375 29.375 -13.390625 C 29.375 -10.546875 28.78125 -8.070312 27.59375 -5.96875 C 26.40625 -3.863281 24.789062 -2.234375 22.75 -1.078125 C 20.71875 0.0664062 18.445312 0.640625 15.9375 0.640625 Z M 15.9375 -3.234375 C 17.476562 -3.234375 18.914062 -3.613281 20.25 -4.375 C 21.582031 -5.132812 22.660156 -6.269531 23.484375 -7.78125 C 24.316406 -9.289062 24.734375 -11.160156 24.734375 -13.390625 C 24.734375 -15.617188 24.328125 -17.488281 23.515625 -19 C 22.703125 -20.519531 21.628906 -21.65625 20.296875 -22.40625 C 18.972656 -23.164062 17.550781 -23.546875 16.03125 -23.546875 C 14.488281 -23.546875 13.050781 -23.164062 11.71875 -22.40625 C 10.382812 -21.65625 9.300781 -20.519531 8.46875 -19 C 7.644531 -17.488281 7.234375 -15.617188 7.234375 -13.390625 C 7.234375 -11.160156 7.644531 -9.289062 8.46875 -7.78125 C 9.300781 -6.269531 10.375 -5.132812 11.6875 -4.375 C 13 -3.613281 14.414062 -3.234375 15.9375 -3.234375 Z M 15.9375 -3.234375 "/></g></g></g><g fill="#00c892" fill-opacity="1"><g transform="translate(1309.958186, 799.349959)"><g><path d="M 3.71875 0 L 3.71875 -26.78125 L 7.828125 -26.78125 L 8.203125 -21.65625 C 9.035156 -23.414062 10.296875 -24.816406 11.984375 -25.859375 C 13.679688 -26.910156 15.769531 -27.4375 18.25 -27.4375 L 18.25 -22.6875 L 17.015625 -22.6875 C 15.429688 -22.6875 13.972656 -22.40625 12.640625 -21.84375 C 11.304688 -21.28125 10.242188 -20.332031 9.453125 -19 C 8.660156 -17.675781 8.265625 -15.84375 8.265625 -13.5 L 8.265625 0 Z M 3.71875 0 "/></g></g></g><g fill="#00c892" fill-opacity="1"><g transform="translate(1329.555917, 799.349959)"><g><path d="M 14.3125 0 C 11.863281 0 9.9375 -0.59375 8.53125 -1.78125 C 7.125 -2.96875 6.421875 -5.109375 6.421875 -8.203125 L 6.421875 -22.953125 L 1.78125 -22.953125 L 1.78125 -26.78125 L 6.421875 -26.78125 L 7.015625 -33.203125 L 10.96875 -33.203125 L 10.96875 -26.78125 L 18.84375 -26.78125 L 18.84375 -22.953125 L 10.96875 -22.953125 L 10.96875 -8.203125 C 10.96875 -6.515625 11.304688 -5.375 11.984375 -4.78125 C 12.671875 -4.1875 13.878906 -3.890625 15.609375 -3.890625 L 18.40625 -3.890625 L 18.40625 0 Z M 14.3125 0 "/></g></g></g><g fill="#00c892" fill-opacity="1"><g transform="translate(1350.449348, 799.349959)"><g><path d="M 3.71875 0 L 3.71875 -38.875 L 8.265625 -38.875 L 8.265625 0 Z M 3.71875 0 "/></g></g></g><g fill="#00c892" fill-opacity="1"><g transform="translate(1362.434744, 799.349959)"><g><path d="M 15.765625 0.640625 C 13.210938 0.640625 10.945312 0.0546875 8.96875 -1.109375 C 6.988281 -2.273438 5.429688 -3.898438 4.296875 -5.984375 C 3.160156 -8.078125 2.59375 -10.546875 2.59375 -13.390625 C 2.59375 -16.203125 3.148438 -18.660156 4.265625 -20.765625 C 5.378906 -22.867188 6.9375 -24.503906 8.9375 -25.671875 C 10.9375 -26.847656 13.25 -27.4375 15.875 -27.4375 C 18.46875 -27.4375 20.707031 -26.847656 22.59375 -25.671875 C 24.488281 -24.503906 25.9375 -22.96875 26.9375 -21.0625 C 27.945312 -19.15625 28.453125 -17.101562 28.453125 -14.90625 C 28.453125 -14.507812 28.441406 -14.113281 28.421875 -13.71875 C 28.410156 -13.320312 28.40625 -12.867188 28.40625 -12.359375 L 7.078125 -12.359375 C 7.179688 -10.304688 7.65625 -8.601562 8.5 -7.25 C 9.351562 -5.90625 10.414062 -4.890625 11.6875 -4.203125 C 12.96875 -3.523438 14.328125 -3.1875 15.765625 -3.1875 C 17.640625 -3.1875 19.207031 -3.617188 20.46875 -4.484375 C 21.726562 -5.347656 22.644531 -6.515625 23.21875 -7.984375 L 27.703125 -7.984375 C 26.984375 -5.503906 25.601562 -3.445312 23.5625 -1.8125 C 21.53125 -0.175781 18.929688 0.640625 15.765625 0.640625 Z M 15.765625 -23.59375 C 13.609375 -23.59375 11.691406 -22.9375 10.015625 -21.625 C 8.335938 -20.3125 7.375 -18.394531 7.125 -15.875 L 23.96875 -15.875 C 23.863281 -18.289062 23.035156 -20.179688 21.484375 -21.546875 C 19.941406 -22.910156 18.035156 -23.59375 15.765625 -23.59375 Z M 15.765625 -23.59375 "/></g></g></g><g fill="#00c892" fill-opacity="1"><g transform="translate(1393.154025, 799.349959)"><g><path d="M 13.984375 0.640625 C 10.785156 0.640625 8.125 -0.164062 6 -1.78125 C 3.875 -3.40625 2.628906 -5.601562 2.265625 -8.375 L 6.90625 -8.375 C 7.195312 -6.96875 7.945312 -5.75 9.15625 -4.71875 C 10.363281 -3.695312 11.992188 -3.1875 14.046875 -3.1875 C 15.953125 -3.1875 17.351562 -3.585938 18.25 -4.390625 C 19.15625 -5.203125 19.609375 -6.171875 19.609375 -7.296875 C 19.609375 -8.910156 19.019531 -9.988281 17.84375 -10.53125 C 16.675781 -11.070312 15.03125 -11.554688 12.90625 -11.984375 C 11.46875 -12.273438 10.023438 -12.691406 8.578125 -13.234375 C 7.140625 -13.773438 5.9375 -14.539062 4.96875 -15.53125 C 4 -16.519531 3.515625 -17.820312 3.515625 -19.4375 C 3.515625 -21.78125 4.382812 -23.695312 6.125 -25.1875 C 7.875 -26.6875 10.242188 -27.4375 13.234375 -27.4375 C 16.078125 -27.4375 18.40625 -26.722656 20.21875 -25.296875 C 22.039062 -23.878906 23.09375 -21.851562 23.375 -19.21875 L 18.90625 -19.21875 C 18.71875 -20.59375 18.128906 -21.664062 17.140625 -22.4375 C 16.148438 -23.207031 14.828125 -23.59375 13.171875 -23.59375 C 11.554688 -23.59375 10.304688 -23.25 9.421875 -22.5625 C 8.535156 -21.882812 8.09375 -20.988281 8.09375 -19.875 C 8.09375 -18.789062 8.660156 -17.941406 9.796875 -17.328125 C 10.929688 -16.722656 12.472656 -16.203125 14.421875 -15.765625 C 16.078125 -15.410156 17.648438 -14.96875 19.140625 -14.4375 C 20.640625 -13.914062 21.863281 -13.140625 22.8125 -12.109375 C 23.769531 -11.085938 24.25 -9.609375 24.25 -7.671875 C 24.28125 -5.253906 23.367188 -3.265625 21.515625 -1.703125 C 19.660156 -0.140625 17.148438 0.640625 13.984375 0.640625 Z M 13.984375 0.640625 "/></g></g></g><g fill="#00c892" fill-opacity="1"><g transform="translate(1420.148117, 799.349959)"><g><path d="M 13.984375 0.640625 C 10.785156 0.640625 8.125 -0.164062 6 -1.78125 C 3.875 -3.40625 2.628906 -5.601562 2.265625 -8.375 L 6.90625 -8.375 C 7.195312 -6.96875 7.945312 -5.75 9.15625 -4.71875 C 10.363281 -3.695312 11.992188 -3.1875 14.046875 -3.1875 C 15.953125 -3.1875 17.351562 -3.585938 18.25 -4.390625 C 19.15625 -5.203125 19.609375 -6.171875 19.609375 -7.296875 C 19.609375 -8.910156 19.019531 -9.988281 17.84375 -10.53125 C 16.675781 -11.070312 15.03125 -11.554688 12.90625 -11.984375 C 11.46875 -12.273438 10.023438 -12.691406 8.578125 -13.234375 C 7.140625 -13.773438 5.9375 -14.539062 4.96875 -15.53125 C 4 -16.519531 3.515625 -17.820312 3.515625 -19.4375 C 3.515625 -21.78125 4.382812 -23.695312 6.125 -25.1875 C 7.875 -26.6875 10.242188 -27.4375 13.234375 -27.4375 C 16.078125 -27.4375 18.40625 -26.722656 20.21875 -25.296875 C 22.039062 -23.878906 23.09375 -21.851562 23.375 -19.21875 L 18.90625 -19.21875 C 18.71875 -20.59375 18.128906 -21.664062 17.140625 -22.4375 C 16.148438 -23.207031 14.828125 -23.59375 13.171875 -23.59375 C 11.554688 -23.59375 10.304688 -23.25 9.421875 -22.5625 C 8.535156 -21.882812 8.09375 -20.988281 8.09375 -19.875 C 8.09375 -18.789062 8.660156 -17.941406 9.796875 -17.328125 C 10.929688 -16.722656 12.472656 -16.203125 14.421875 -15.765625 C 16.078125 -15.410156 17.648438 -14.96875 19.140625 -14.4375 C 20.640625 -13.914062 21.863281 -13.140625 22.8125 -12.109375 C 23.769531 -11.085938 24.25 -9.609375 24.25 -7.671875 C 24.28125 -5.253906 23.367188 -3.265625 21.515625 -1.703125 C 19.660156 -0.140625 17.148438 0.640625 13.984375 0.640625 Z M 13.984375 0.640625 "/></g></g></g><g fill="#00c892" fill-opacity="1"><g transform="translate(1447.142209, 799.349959)"><g><path d="M 3.71875 0 L 3.71875 -38.875 L 8.265625 -38.875 L 8.265625 0 Z M 3.71875 0 "/></g></g></g><g fill="#00c892" fill-opacity="1"><g transform="translate(1459.127606, 799.349959)"><g><path d="M 6.640625 11.875 L 13.28125 -2.59375 L 11.71875 -2.59375 L 1.078125 -26.78125 L 6 -26.78125 L 14.84375 -5.9375 L 24.25 -26.78125 L 28.9375 -26.78125 L 11.390625 11.875 Z M 6.640625 11.875 "/></g></g></g><g fill="#00c892" fill-opacity="1"><g transform="translate(1489.145044, 799.349959)"><g><path d="M 5.296875 0.265625 C 4.390625 0.265625 3.640625 -0.03125 3.046875 -0.625 C 2.453125 -1.21875 2.15625 -1.945312 2.15625 -2.8125 C 2.15625 -3.675781 2.453125 -4.40625 3.046875 -5 C 3.640625 -5.59375 4.390625 -5.890625 5.296875 -5.890625 C 6.160156 -5.890625 6.890625 -5.59375 7.484375 -5 C 8.078125 -4.40625 8.375 -3.675781 8.375 -2.8125 C 8.375 -1.945312 8.078125 -1.21875 7.484375 -0.625 C 6.890625 -0.03125 6.160156 0.265625 5.296875 0.265625 Z M 5.296875 0.265625 "/></g></g></g></svg>